<?xml version="1.0" encoding="UTF-8"?>
<svg id="Capa_2" data-name="Capa 2" xmlns="http://www.w3.org/2000/svg" viewBox="0 0 1029.74 1155.63">
  <defs>
    <style>
      .cls-1 {
        fill: #faeeb0;
      }

      .cls-2 {
        fill: #d4cbc9;
      }

      .cls-3 {
        fill: #8a7825;
      }

      .cls-4 {
        fill: #bcc053;
      }

      .cls-5 {
        fill: #6bb43c;
      }

      .cls-6 {
        fill: #feefb2;
      }

      .cls-7 {
        fill: #fafafa;
      }

      .cls-8 {
        fill: #3f8734;
      }

      .cls-9 {
        fill: #428a36;
      }

      .cls-10 {
        fill: #c2c1c2;
      }

      .cls-11 {
        fill: #cccccb;
      }

      .cls-12 {
        fill: #c3c3c3;
      }

      .cls-13 {
        fill: #cdcccc;
      }

      .cls-14 {
        fill: #f6f6f6;
      }

      .cls-15 {
        fill: #408a34;
      }

      .cls-16 {
        fill: #dadada;
      }

      .cls-17 {
        fill: #c3312c;
      }

      .cls-18 {
        fill: #426f2d;
      }

      .cls-19 {
        fill: #9dc970;
      }

      .cls-20 {
        fill: #408b35;
      }

      .cls-21 {
        fill: #fefdfc;
      }

      .cls-22 {
        fill: #f2f2f2;
      }

      .cls-23 {
        fill: #fefefe;
      }

      .cls-24 {
        fill: #e5e4e4;
      }

      .cls-25 {
        fill: #16090a;
      }

      .cls-26 {
        fill: #8b8c8a;
      }

      .cls-27 {
        fill: #f2cccb;
      }

      .cls-28 {
        fill: #070907;
      }

      .cls-29 {
        fill: #d1cbc9;
      }

      .cls-30 {
        fill: #8a9424;
      }

      .cls-31 {
        fill: #438e35;
      }

      .cls-32 {
        fill: #bf332d;
      }

      .cls-33 {
        fill: #fff;
      }

      .cls-34 {
        fill: #eeefef;
      }

      .cls-35 {
        fill: #c9c8c6;
      }

      .cls-36 {
        fill: #7d7e7d;
      }

      .cls-37 {
        fill: #a0ca74;
      }

      .cls-38 {
        fill: #3f8b37;
      }

      .cls-39 {
        fill: #6bb33c;
      }

      .cls-40 {
        fill: #fdfdfd;
      }

      .cls-41 {
        fill: #fceeb3;
      }

      .cls-42 {
        fill: #b9ab7a;
      }

      .cls-43 {
        fill: #acb632;
      }

      .cls-44 {
        fill: #958229;
      }

      .cls-45 {
        fill: #fdfefd;
      }

      .cls-46 {
        fill: #fae79e;
      }

      .cls-47 {
        fill: #fcfdfd;
      }

      .cls-48 {
        fill: #7f6e29;
      }

      .cls-49 {
        fill: #43712d;
      }

      .cls-50 {
        fill: #d4d4d3;
      }

      .cls-51 {
        fill: #d6da84;
      }

      .cls-52 {
        fill: #3f8d35;
      }

      .cls-53 {
        fill: #f0f0ef;
      }

      .cls-54 {
        fill: #a12f2b;
      }

      .cls-55 {
        fill: #eeefee;
      }

      .cls-56 {
        fill: #f6e590;
      }

      .cls-57 {
        fill: #6d2424;
      }

      .cls-58 {
        fill: #fae795;
      }

      .cls-59 {
        fill: #060706;
      }

      .cls-60 {
        fill: #a0a09f;
      }

      .cls-61 {
        fill: #8b9324;
      }

      .cls-62 {
        fill: #428c37;
      }

      .cls-63 {
        fill: #b5a834;
      }

      .cls-64 {
        fill: #f1f2f1;
      }

      .cls-65 {
        fill: #d6cd83;
      }

      .cls-66 {
        fill: #dcdf8a;
      }

      .cls-67 {
        fill: #ce2c2a;
      }

      .cls-68 {
        fill: #ccd452;
      }

      .cls-69 {
        fill: #b5c639;
      }

      .cls-70 {
        fill: #fbe896;
      }

      .cls-71 {
        fill: #e2e3e2;
      }

      .cls-72 {
        fill: #17090a;
      }

      .cls-73 {
        fill: #f6e2df;
      }

      .cls-74 {
        fill: #9fc970;
      }

      .cls-75 {
        fill: #24431d;
      }

      .cls-76 {
        fill: #948228;
      }

      .cls-77 {
        fill: #b5a678;
      }

      .cls-78 {
        fill: #b5b7b5;
      }

      .cls-79 {
        fill: #fcfbfc;
      }

      .cls-80 {
        fill: #bdbcbb;
      }

      .cls-81 {
        fill: #867524;
      }

      .cls-82 {
        fill: #ad2c24;
      }

      .cls-83 {
        fill: #732626;
      }

      .cls-84 {
        fill: #f2f3f3;
      }

      .cls-85 {
        fill: #a82523;
      }

      .cls-86 {
        fill: #9e8729;
      }

      .cls-87 {
        fill: #fffefe;
      }

      .cls-88 {
        fill: #ce2f29;
      }

      .cls-89 {
        fill: #6cb53d;
      }

      .cls-90 {
        fill: #3f8b38;
      }

      .cls-91 {
        fill: #cccbcc;
      }

      .cls-92 {
        fill: #cac8c9;
      }

      .cls-93 {
        fill: #9cc86f;
      }

      .cls-94 {
        fill: #ebc5c2;
      }

      .cls-95 {
        fill: #427f3a;
      }

      .cls-96 {
        fill: #6ab43c;
      }

      .cls-97 {
        fill: #6bb53d;
      }

      .cls-98 {
        fill: #030404;
      }

      .cls-99 {
        fill: #d1322d;
      }

      .cls-100 {
        fill: #b6c837;
      }

      .cls-101 {
        fill: #fffffe;
      }

      .cls-102 {
        fill: #428e37;
      }

      .cls-103 {
        fill: #ad2a24;
      }

      .cls-104 {
        fill: #9fc96f;
      }

      .cls-105 {
        fill: #fafaf9;
      }

      .cls-106 {
        fill: #9ac76d;
      }

      .cls-107 {
        fill: #020303;
      }

      .cls-108 {
        fill: #428a3a;
      }

      .cls-109 {
        fill: #fcfcfc;
      }

      .cls-110 {
        fill: #e8eae7;
      }

      .cls-111 {
        fill: #faf0ee;
      }

      .cls-112 {
        fill: #cecbca;
      }

      .cls-113 {
        fill: #b8b8b7;
      }

      .cls-114 {
        fill: #cac7c7;
      }

      .cls-115 {
        fill: #6cb43d;
      }

      .cls-116 {
        fill: #cf2c2b;
      }

      .cls-117 {
        fill: #c8c7c6;
      }

      .cls-118 {
        fill: #9c9b9a;
      }

      .cls-119 {
        fill: #080808;
      }

      .cls-120 {
        fill: #f1f1f1;
      }

      .cls-121 {
        fill: #cecccd;
      }

      .cls-122 {
        fill: #3f8a37;
      }
    </style>
  </defs>
  <g id="Capa_1-2" data-name="Capa 1">
    <g>
      <path class="cls-33" d="M291.14,1104.99l29.04-2.49c10.63-.91,9.45,15.8,8.1,32-25.89,7.54-51.87,8.14-77.93,7.46-4.03-.03-7.96-.44-11.79-1.23l-4.43-.37c-15.57-2.68-31.25-5.56-45.68-13.34-6.37-3.43-9.71-7.77-9.69-15.34.02-9.53-.3-18.95,4.84-27.94,1.86,3.52,4.52,5.95,8.02,7.88,23.87,13.12,72,15.72,99.52,13.36Z"/>
      <path class="cls-103" d="M443.95,1068.07c2.59-10.28,3.81-21.42,1.06-31.81-1.52-2.39-.6-3.05,1.77-1.39l1.8-5.58c13.74-13.65,13.65-43.45-6.35-51.03l-2.78-3.63c.08-7.77-3.06-20.24-4.22-21.02s-3.25-.96-4.52-.86c.82-1.28,2.35-1.28,4.29-1.6,13.98-2.35,27.44-9.69,23.92-14.39-.78-1.04-2.99-1.24-3.9-1.36-.99-.12-1.41-3.78-.48-3.85,7.24,0,11.15,6.91,10.07,14.13-3.38,22.52-2.57,44.29,3.55,66.07,3.84,13.64,6.66,27.29,6.05,41.57-.17,3.94-6.19,6.84-9.18,7.82l-21.07,6.94Z"/>
      <path class="cls-87" d="M433.69,975.63c9.48-2.16,13.3,3.95,9.24,12.21-2.65-1.92-5.62-1.06-8.4.04l2.16,2.57-11.08,30.45c3.19-1.25,6.31-3.5,9.36-6.75,6.74-3.48,16.5-.51,10.64,6.03,5.42,1.23,4.09,10.87,1.16,14.68l-1.77,1.39c-10.78,5.01-23.36,1.24-29.61-10-10.17-18.27-.63-42.39,18.29-50.63Z"/>
      <path class="cls-29" d="M439.45,974.62c6.15,1.59,12.08,4.06,15.57,9.52,10.58,16.55,6.86,38.81-8.24,50.72l-1.16-14.68c-.39-2.14,1.14-3.63,4.59-4.46l-10.04-25.67c-2.72.68-4.6-.05-5.64-2.18,1.58-.95,4.19-1.8,6.77-1.92.54-3.25-.02-6.05-.66-9.54l-6.95-.78c2.07-.9,3.59-1.57,5.76-1.01Z"/>
      <g>
        <path class="cls-116" d="M430.71,952.74c1.46-.58,6.04-1.1,6.98-.63,1.51.76,7.48,21.27,1.77,22.51-1.71.64-3.63.98-5.76,1.01l-.8,3.61c-26.49,12.06-25.53,62.31,9.21,55.08l2.91,1.94c4.15,2.8,5.63,7.9,4.42,15.3.58,7.39-1.24,12.9-5.48,16.52l-24.13,4.92-52.15,11.99c-25.55,7.73-50.89,12.23-77.24,13.43-4.26-11.99-2.92-26.36,2.96-38.51,7.36.84,9.2,6.53,11.2,12.12s9.92,6.38,14.07,2.8c4.43-3.83,5.88-10.26,1.1-15.24l-7.83-8.16c-1.1-1.14.47-3.29,1.21-3.74,7.2-.08,12.05,4.31,15.65,10.26,2.78,4.59,9.73,2.68,12.56.09,3.45-3.15,4.7-7.1,3.13-12.12-1.92-6.15-12.21-6.55-12.56-9.25-.12-.94,2.08-1.72,2.68-2.29,4.05-3.86,10.35-3.5,13.25,1.57s7.71,7.19,13.1,5.31c3.87-1.35,6.94-5.34,6.87-10.39-.12-9.43-10.51-8.92-14.12-13.37,5.83-18.76,17.96,5.64,28.21-5.07,3.32-3.46,3.27-9.15.84-13.4-5.01-8.78-18.74-1.54-17.5-6.7,4.29-17.92,12.49-35.73,30.36-37.03l35.1-2.57Z"/>
        <g>
          <circle class="cls-72" cx="387.42" cy="976.12" r="8.98"/>
          <circle class="cls-110" cx="387.63" cy="976.06" r="5.03"/>
        </g>
      </g>
      <g>
        <path class="cls-119" d="M267.43,1025.35c5.86,3.6,12.37,6.32,19.54,8.16,7.38,4.61,8.95,5.55,4.74,2.84l.87-1.74c1.87-.27,3.04-2.26,4.36-3.1,4.89,2.55,8.23,5.82,10.02,9.8.04,2.14.65,4.27,1.82,5.32,1.33,1.19,3.08,1.07,4.36,1.06,8.51,7.83,20.81,24.77,4.22,31.3-10.29,4.05-15.26-3.49-18.17-12.27-5.17-8.43-7.07,3.91-7.86,9.87s-.63,12.31,1.02,18.26l-1.92,3.58c.74,2.08.74,4.2.71,6.58-3.41,3.46-8.59,4.68-15.54,3.66-28.95,1.1-67.47-2.26-91.39-19.04-2.41,7.48-4.01,19.96-1.73,27.4,3.54,11.53,36.87,17.72,48.08,19.78l3.56,3.58c.58,1.7.83,5.2,3.09,5.82,2.23.34,4.94.14,5.15,2.19-19.97-2.06-38.86-5.47-56.66-14.53-4.3-2.19-10.06-5.02-11.61-10.2-4.24-14.17-3.79-31.68,3.97-44.63,9.35-15.59,25.76-22.26,41.88-28.37,14.2-5.37,24.22-19.68,38.19-22.49l5.15-5.68c.43,2.14,2.34,3.46,4.15,2.86Z"/>
        <g>
          <path class="cls-120" d="M292.57,1034.61c1.08.82,2.17,2.47,2.65,4.6l-28.89-9.52c-.14-1.71.46-3.07,1.1-4.33,1.86-.62,4.45-3.11,7.25-2.29,7.26,2.13,12.43,7.4,17.9,11.54Z"/>
          <path class="cls-33" d="M285.2,1098.23c-29.56.76-70.19-.14-93.56-15.27-1.21-1.4-2.06-2.86-2.14-4.25-.38-6.84,29.81-25.74,54.71-22.09,21.47,3.15,36.57,21.32,40.99,41.6Z"/>
          <path class="cls-40" d="M283.22,1081.08c-8.44-13.8-20.45-24.93-37.97-29.07l10.78-6.48c12.52,1.51,23.84,5,34.92,11-5.4,6.83-6.39,14.17-7.73,24.55Z"/>
          <path class="cls-109" d="M307.92,1066.2c-15.95-17.6-37.5-24.4-61.16-25.38,2.81-4.27,7.51-6.41,12.22-6.25,27.53.96,57.91,19.18,54.62,30.6-.33,1.14-3.89,3-5.68,1.03Z"/>
          <path class="cls-10" d="M307.88,1070.59l6.85-1.2c1.74-.3,2.47-3.11,2.99-5.91,2.29,2.05,1.61,5.57-.74,7.77-1.65,1.54-5.45,3.97-9.1-.65Z"/>
        </g>
      </g>
      <g>
        <path class="cls-17" d="M445.62,1020.18c-.1-1.34-.69-3.2-1.65-3.98-2.11-1.7-8.16-1.2-13.03,5.46-1.74,2.37-6.73,2.59-9.38,1.63l12.98-35.42c2.09-.6,7.38-1.56,8.27.74l11.61,29.89-8.8,1.68Z"/>
        <path class="cls-111" d="M441.02,1007.2c.1,1.38-3.96,2.45-5.45.92.8-2.98.97-5.74,3.19-8.73.88,2.28,2.02,4.51,2.26,7.8Z"/>
      </g>
      <g>
        <path class="cls-98" d="M242.36,1148.38c-9.96-1.8-12.7-4.47-8.23-8.01.45-4.15,3.76-3.68,4.43.37,3.83.8,7.76,1.21,11.79,1.23l5.84-2.79c22.9.49,45.98-.68,68.21-6.57,2.47.45,2.85.31,1.15-.41,1.9-9.74,1.08-18.51-2.48-26.3-9.8.02-19.66.63-29.6,1.82l-2.33-2.73c-3.9-.77-4.22-4.75-.71-6.58,8.73-3.49,18.18-5.34,28.37-5.55l20.06-3.51c68.35-15.82,102.53-23.73,102.53-23.73l2.57,2.45,2.89-4.02c7.86-2.1,15.36-4.88,22.49-8.34,2.89-5.66,3.16-12.96.8-21.89-7.29-30.61-13.92-60.38-8.35-92.03-4.19,4.51-9.67,7.64-15.47,9.45-6.81,2.12-8.95,2.02-15.6,1.5l-1.44,3.03-33.4,2.44c-17.64,3.18-23.56,17.2-26.98,33.29,22.51-3.87,25.94,29,2.71,26.01-7.83-5.15-12.64-5.51-14.43-1.08,23.7,7.37,12.95,37.3-8.7,24.91-3.26-6.11-7-7.91-11.23-5.41,25.11,11.91.12,42.86-15.28,18.08l-3.37-2.28c-3.08-.42-4.9-1.77-5.47-4.05-2.98,7.08-12.6-2.46-6.18-6.38,2.68-2.64,6.55-2.53,11.62.35,15.18,7.5,18.26,7.81,9.22.92-8.44-3.31-17.24-5.73-26.4-7.27l-4.46-3.8c1,4.34-.9,6.72-4.36,3.1l-2.02.9c-5.5-3.91-11.27-7.15-17.3-9.7-2.31,1.56-4.25,1.4-5.82-.45-2.81,4.84-7.75,1.59-4.15-2.86,2.87-3.16,5.57-4.66,9.77-6.21s4.72-8.08,7.79-10.92c4.94-4.56,10.22-8.32,10.08-16.15-.08-4.88,3.64-8.45,4.45-12.84l4.77-25.84c1.13-6.14,3.75-10.95,8.72-14.84.74-7.47,5.21-12.32,11.28-16.52l-11.97-79.84-242.76-8.39c-10.32-.36-19.5-2.18-26.9-8.91s-9.06-17.28-7.43-26.99c-22.89-9.65-36.25-33.93-28.03-56.98,3.98-11.16,13.79-17.6,25.45-15.4,2.97-7.12,7.62-11.64,12.81-17.05-16.92-20.44-29.2-41.91-37.27-66.1-10.44-31.31-.23-63.4,26.57-82.8,47.38-34.3,101.8-49.53,159.08-65.95-8.2-18.9-13.18-37.71-15.7-57.9l-4.65-37.26-7-12.02c-2.23-9.95-1.1-20.53,1.08-30.4,1.12-5.07,4.89-9.01,9.24-11.16l34.13-16.89c28.72-11.59,58.76-15.3,89.65-16.06l9.48-17.74c-5.07,1.91-9.52,2.52-13.52-.52-2.49-1.89-5.27-5.45-5.64-9.86.86-25.6,30.87-45.74,55.97-51.43L471,15.84c8.44-14.05,27.11-18.94,40.49-13.91,11.98,4.51,20.59,12.14,27.65,22.64l224.87,334.34,45.36,18.75c27.3,11.29,33.14,17.32,42.21,48.16,2.25,7.65,5.13,15.95,2.64,23.77-3.39,10.66-15.26,12.51-25.9,8.79l28.08,44.21c35.54,8.1,69.05,18.94,100.68,36.22l42.47,25.96c25.17,17.53,35.9,46.6,27.19,76.51-7.75,26.62-28.34,52.54-49.67,70.68,3.57,7.58,3.47,14.25,3.19,22.15,12.82,1.31,21.79,11.12,22.97,23.73,1.94,20.7-15.48,42.77-31.69,54.97-26.4,19.87-55.98,12.83-83.06-4.58l-41.91,32.83c-9.61,7.53-21.96,11.03-33.86,14.19-11.02,2.93-22.13,1.97-33.63,1.59l-111.78-3.69,15.01,67.21c9.74.57,16.48,6.14,18.82,15.3,8.13,2.08,12.9,8.26,13.82,15.9l3,24.72c.47,3.89,4.78,6.94,4.39,11.57-1.26,14.78,12.28,15.46,14.35,28.1,7.37,2.6,11.45,10.21,17.3,14.24,7.26,5.01,13.31,9.72,20.62,14.8l13.65,9.48,18.9,11.84c5.12,5.64,12.49,10.07,16.37,17.19,6.9,12.64,8.79,31.28,2.61,44.81-3.93,8.6-15.3,13.48-24.33,16.54-40.65,13.74-85.15,14.18-126.46,2.2l-46.09-18.08-39.02-11.91c-19.49-5.95-43.51-7.14-48.8-27.11-3.37-12.71-.93-25.21-.41-37.89.59-14.59,2.02-27.66,5.36-41.86,4.28-18.23,1.78-37.24-.84-55.7-1.18-8.32,1.43-14.28,8.61-18.85l-25.21-87.8-83.99-2.99,8.15,78.38c12.3,1.47,20.08,10.27,18.65,22.49-3.27,22.31-2.94,44.21,4.01,65.67,4.17,12.89,4.38,25.67,6.71,38.63,3.99,22.19,6.03,46.18-14.29,54-13.31,5.12-27.05,8.57-41.38,10.84-23.7,3.75-45.32,10.12-67.93,18.14-37.9,13.45-76.59,19.49-116.56,15.36Z"/>
        <g>
          <g>
            <g>
              <g>
                <path class="cls-39" d="M425.74,947.04l-32.49,2.75c-7.52-25.74-39.37-32.95-65.75-31.74l-7.87-55.76,5.19-.82c30.66,5.54,61.52,9.96,92.56,13.24l1.9,2.99,9.11,67.24-2.66,2.1Z"/>
                <path class="cls-122" d="M425.74,947.04l-9.53-70.27c-33.05-1.81-64.78-7.22-96.58-14.47l-3.53-22.08,121.57,4.49,10.25,96.21c-7.26,3.05-14.39,5-22.19,6.12Z"/>
              </g>
              <g>
                <path class="cls-62" d="M665.79,880.5l-3.76,2.52c-29.88,4.82-60.11,6.14-90.68,3.94,4.9,22.44,10.57,44.42,17.02,65.94l-23.39-4.73c-8.03-33.87-17.26-66.58-28.05-100.01l122.56,4.5,6.3,27.83Z"/>
                <path class="cls-96" d="M665.79,880.5l9.12,40.41c-26.77-.98-54.62,6.28-60.54,32.1l-26-.1c-4.64-1.12-5.07-4.16-6.16-8.66l-14.58-60.26c33.62,1.19,65.98,1.52,98.16-3.49Z"/>
              </g>
            </g>
            <g>
              <g>
                <path class="cls-33" d="M670.25,1137.09c-.76-11.27-1.42-21.06,3.41-31.26,40.76,6.2,90,9.25,128.31-4.6,6.91-2.5,11.24-6.47,17.13-12.28,2.68,11.75,6.07,24.93.67,36.18-3.15,6.56-13.28,10.3-20.23,12.77-38.02,13.47-91,14.64-129.29-.82Z"/>
                <path class="cls-33" d="M793.66,1096.44c-27.33,8.4-54.99,8.95-82.99,6.5,10.31-31.54,43.78-50.24,75.48-40.43,11.32,3.5,20.61,11.78,26.85,21.46-3.98,7.18-11.19,9.97-19.34,12.48Z"/>
                <path class="cls-45" d="M571.47,1090.12c-4.66-2.38-2.17-12,2.93-12.28,19.53,4.19,37.92,9.5,57.07,15.4l38.51,11.85c-2.63,5.05-3.16,9.32-4.3,14.24l-56.68-19.55-37.52-9.66Z"/>
                <path class="cls-85" d="M570.53,1037.15c3.09-2.8,4.57-.84,1.57,2.12-2.93,4.06-1.14,10.47-2.76,15.66-1.66,5.31-4.38,8.53.08,13.71-6.95-1.77-14.17-4.33-20.07-9.86-1.88-16.84,1.39-32.59,5.19-49.25.63-2.76-1.13-6.92,1.69-8.63l2.99,1.99c.69,5.91.86,11.81.51,17.69,4.33,5.11,7.93,10.63,10.81,16.58Z"/>
                <path class="cls-109" d="M710.29,1010.62c-14.17-3.76-28.36-4.95-43.35-3.9l-34.55,2.44c-1.58.11-1.76-3.15-1.25-4.05.72-1.28,1.91-3.46,4.22-4,21.95-5.08,44.45-6.28,66.62-1.76,5.8,1.18,11.19,2.56,15.05,7.4-1.66,1.86-4.61,3.39-6.75,3.88Z"/>
                <path class="cls-105" d="M575.93,1105.79c-4.21-2.39-6.53-7.04-.34-7.5l37.13,9.51,52.55,18.74c1.57,2.16,1.37,6.92.54,8.9l-49.98-19.22-39.9-10.43Z"/>
                <path class="cls-79" d="M744.76,1046.73c-36.4,3.81-51.51,25.88-56.14,23.28-4.18-2.35.95-11.21,10.27-16.82,17.58-10.59,52.27-22.18,66-8.57l-20.13,2.11Z"/>
                <path class="cls-109" d="M766.58,1056.22c-22.66,1.05-40.3,11.84-52.56,30.05-.11-9.3-.21-16.21-3.26-24.77,18.93-8.74,39.29-17.18,55.83-5.29Z"/>
                <path class="cls-82" d="M582.55,958.64l-8.66.26-.54,14.5c-.09,2.34.82,4.18,1.95,5.39-7.22,4.87-12.8,8.89-15.8,17.78l-3.4.37-3.06-45.51c-.22-3.31.9-7.07,4.36-7.34-.47,2.9-.27,6.28,1.6,7.9,1.13.98,3.19,2.37,5.5,2.81l18.05,3.83Z"/>
                <path class="cls-2" d="M575.3,978.79c1.92,0,3.05.75,4.78,1.57-.87,1.73-2.36,2.97-4.45,3.71l.23,2.33c3.31-.22,5.23.93,3.67,4.35-.57,1.89-2.46,2.8-5.67,2.72l-9.35,25.29c2.68.06,4.7.9,6.03,2.52,4.59.94,4.38,14.52-.01,15.85-12.82-7.3-13.86-22.64-14.31-36.25l-.13-3.95c4.56-9.52,8.1-18.11,19.21-18.15Z"/>
                <path class="cls-7" d="M688.32,1026.78c-17.25-1-40.61,12.53-41.04,5.79-.77-11.95,34.5-16.67,53.21-15.08l-12.17,9.29Z"/>
                <path class="cls-7" d="M704.79,1030.58c-5.21,3.19-11.53,2.92-16.73,3,10.31-10.21,31.5-26.55,37.18-24.45,1.75.65,4.62,3.75,4.1,6.41l-24.55,15.04Z"/>
                <path class="cls-112" d="M574.4,1077.83c-1.6,4.2-2.73,8.01-2.93,12.28-8.25-2.12-15.92-5.05-23.23-9.9-1.29-4.33-1.39-8.98-.57-13.63,8.54,4.59,17.03,9.17,26.72,11.25Z"/>
                <path class="cls-14" d="M701.67,1044.01c-15.05,1.96-30.72,11.11-33.88,9.37-4.92-2.71,4.93-12.45,15.78-13.87l25.84-3.38-7.73,7.89Z"/>
                <path class="cls-34" d="M746.1,1031.67l-35.42,10.04c11.98-11.82,29.81-23.27,35.42-10.04Z"/>
                <path class="cls-35" d="M575.59,1098.29c-1.68,2.53-.04,5.15.34,7.5l-16.71-5.84c-5.12-1.79-8.84-5.92-10.06-11.9l26.44,10.24Z"/>
                <path class="cls-55" d="M710.81,995.17c-4.34,1.94-10.2.14-14.92-1.85l16.53-9.57c1.74-1.01,3.47,3.34,3.2,4.84-.38,2.08-1.07,4.92-4.8,6.58Z"/>
                <path class="cls-54" d="M703.04,945.54c6.36,2.71,7.41,23.12,6,35.28-4.01-11.51-4.39-22.94-6-35.28Z"/>
                <path class="cls-11" d="M688.85,1011.91c-7.4,3.74-14.2,1.52-21.86,3.41,2.63-6.06,11.54-4.79,21.86-3.41Z"/>
                <path class="cls-113" d="M671.49,1057.4c-1.25,3.62-6.84,2.4-8.88-.27-2.32-3.04-3.06-7.56,1.13-9.49-.47,2.43-.89,4.38-.31,5.67,1,2.23,2.74,4.13,8.06,4.09Z"/>
                <path class="cls-80" d="M643.98,1035.55c.98,1.72,5.04,1.85,7.11,3.96-2.75,1.75-6.58.74-8.62-1.64-2.36-2.77-2.87-7.17.62-9.32.91,2.12.47,3.77.88,6.99Z"/>
                <path class="cls-78" d="M724.27,1023.37c6.16-.83-.22,4.99-10.82,7.83,3.07-3.43,6.54-5.58,10.82-7.83Z"/>
                <path class="cls-13" d="M684.51,1031.82c-2.59,4.53-7.82,5.04-12.32.75,3.86-1.14,6.75-1.72,12.32-.75Z"/>
                <path class="cls-92" d="M693.12,1074.36c-1.97,1.65-4.89,2.44-7.22,1.53-2.87-1.12-5.21-4.17-3.75-8.07,2.38,3.92,4.22,5.99,10.96,6.54Z"/>
                <path class="cls-80" d="M632.01,1013.52c-2.8,1.29-5.78-1.42-6.74-3.74-1.54-3.7-.18-7.18,3.86-8.84l-1.54,6.53c-.36,1.54,1.41,3.43,4.43,6.06Z"/>
                <rect class="cls-83" x="768.22" y="1045.05" width="2.72" height="13.53" transform="translate(-511.4098 1291.9114) rotate(-64.4242)"/>
                <path class="cls-121" d="M664.3,1011.25c-1.13,2.06-2.92,3.25-4.33,3.9-2.42,1.1-4.74-.67-4.56-3.86l8.89-.04Z"/>
                <path class="cls-36" d="M704.66,1013.61c-3.63.51-8.03,1.76-12.6-1.04,4.45-2.58,7.23-.92,12.6,1.04Z"/>
                <path class="cls-21" d="M580.07,980.37c17.73,8.47,25.27,31.82,15.49,49.55-4.95,8.97-14.6,11.98-23.46,9.35.4-.55-.96-1.77-1.57-2.12v-15.85c-4.61-6.06,5.19-7.56,10.12-4.26,2.02,3.67,4.04,5.65,6.06,5.94l-9.33-29.34,2.15-2.87c-.41-1.28-2.55-1.4-4.43-1.71-2.69-.45-2.91-5.73-1.66-7.57,1.03-1.52,4.82-1.17,6.64-1.11Z"/>
                <g>
                  <path class="cls-67" d="M582.55,958.64h24.79c22.6,0,25.11,13.57,31.95,30.68,5.15,12.91-11.55,2.58-16.68,11.83-2.5,4.51-1.91,9.57,1.25,13.15,7.79,8.84,15.65-4.04,23.25-1.9,2.55.72,6.13,5.37,4.98,8.28-1.69,2.21-5.68,2.06-7.84,2.65-7.12,1.94-8.71,9.71-6.12,14.73,3.2,6.19,11.49,7.95,16.07,2.74,2.67-3.02,4.89-4.95,8.44-5.78,2.72-.63,7.62.13,8.61,4.07-4.04,4.76-16.21,5.27-13.97,15.89.98,4.63,4.5,7.88,9.03,8.47,8.97,1.16,9.92-13.66,25.99-11.86-4.45,8.63-18.73,12.15-12.9,23.57,1.81,3.54,6.27,6.09,11.41,4.79,7.93-2.01,6.53-16.1,15.51-14.1,5.16,11.89,1.33,24.26-.88,36.95l-38.52-5.72-53.91-17.33-43.61-11.12-5.07-3.39c-.7-1.05,3.26-21.68,3.91-24.72.2-.97,2.42-1.18,3.85-1.25l2.49-2.38c29.56,2.7,27.81-42.18,6.16-52.89l-.68-3.64c-1.92-.19-3.52-.71-4.78-1.57-6.5,3.05-5.11-18.05-4.35-19.19.39-.58.69-1.21.98-1.86l10.62.89Z"/>
                  <g>
                    <circle class="cls-25" cx="617.88" cy="978.38" r="8.85"/>
                    <circle class="cls-24" cx="617.94" cy="978.47" r="4.87"/>
                  </g>
                </g>
                <g>
                  <path class="cls-101" d="M688.09,992.13l-40.55,2.46c-5.67-17.64-10.2-33.02-26.98-40.06,4.27-25.05,43.73-31.03,67.49-25.7,5.66,1.27,7.69,8.76,8.45,13.4l6.73,41.33c-4.51,2.35-9.15,8.21-15.14,8.58Z"/>
                  <g>
                    <path class="cls-88" d="M683,971.15c-.05-.08-15.5-.52-15.3,8.63l-12.41,2.28,10.13-38.21c1.91-2.53,8.09-2.83,11.42-2.37l21.25,33.06c-4.35,1.93-9.05,2.83-12.56.62l-2.52-3.99Z"/>
                    <path class="cls-27" d="M678.4,962.85c-2.32,1.07-4.05,1.39-7.11,1.22.18-3.24.65-6.08,2.07-9.82l5.03,8.61Z"/>
                  </g>
                </g>
                <g>
                  <path class="cls-32" d="M579.53,990.76l11.4,35.85c-11.74.65-8.78-7.18-13.71-8.06-3.42-.61-5.76-.74-6.67,2.75-2.16,1.7-7.37.75-9.82-.7l10.49-28.16c1.11-2.99,6.37-2.43,8.32-1.68Z"/>
                  <path class="cls-73" d="M578.1,1011.09c-5.15,1.28-4.5-1.83-4.51-3.54-.02-2.29,0-4.07,3.04-5.25-.33,3.61-.07,6.05,1.48,8.79Z"/>
                </g>
              </g>
              <g>
                <path class="cls-23" d="M447.21,1074.95c5.83,3.26,4.21,11.54-2.07,13.6l-50.66,10.2-61.29,17.98-3.4-15.31,63.2-15.94,54.22-10.53Z"/>
                <path class="cls-7" d="M445.26,1103.47l-25.93,5.54c-18.18,3.88-35.4,8.22-53.07,13.86l-32.85,10.48c-.91-3.37-.88-6.08.23-9.71l57.06-16.95,50.65-10.1,4.47-.99c.55.06,1.06-.06,1.49-.2,4.71,1.06,1.83,6.79-2.05,8.08Z"/>
                <path class="cls-47" d="M333.3,1004.31c-23.29-1.84-37.57,7.72-39.25-.66,16.54-15.74,79.23-8.07,80.14-.46.24,2.02-1.83,4.2-4.54,3.99l-36.35-2.87Z"/>
                <path class="cls-7" d="M307.93,1014.95c52.17-3.68,56.23,22.86,43.84,17.13-22.66-10.48-37.67-4.73-43.84-17.13Z"/>
                <path class="cls-114" d="M445.13,1088.55c3.11-3.99,2.66-8.82,2.07-13.6,10.55-3.63,20.45-6.78,29.72-13.11.64,5.49.93,9.62.21,14.27-10.11,6.36-20.59,10.14-32.01,12.44Z"/>
                <path class="cls-53" d="M306.95,1041.3c-4.5-.83-9.42-5.49-10.02-9.8l25.04,5.44c7.26,1.58,15.64,8.57,13.48,12.36-2.84,5-11.98-4.93-28.5-8Z"/>
                <path class="cls-84" d="M301.45,1027.4l-13.7-10.08c-1.68-1.24-4.08-1.87-4.48-3.94-.3-1.54.51-3.46,2.4-5.26,3.82-3.64,22.14,11.79,30.43,21.89-5.16-.03-10.54.41-14.65-2.61Z"/>
                <path class="cls-117" d="M445.26,1103.47l2.05-8.08c9.93-3.27,19.33-5.89,28.61-11.31-.96,12.06-16.67,16.4-30.66,19.39Z"/>
                <path class="cls-22" d="M312.88,991.49c-4.44,1.55-10.89,3.7-14.95-.61-1.35-1.44.18-6.22,1.75-8.31l13.2,8.93Z"/>
                <path class="cls-57" d="M305.13,981c-2.7-5.45-.21-10.58.41-16.44.55-5.14-1-10.98,3.99-15.58-.98,11.22-1.24,20.85-4.4,32.01Z"/>
                <path class="cls-50" d="M319.93,1008.97c8.69-1.48,16.54-1.84,19.22,3.72-7.14-1.22-13.16-.99-19.22-3.72Z"/>
                <path class="cls-91" d="M353.57,1036.69c2.22-.8,5.28-1.26,6.3-2.74,1.67-2.43,1.28-5.16,1.1-8.36,3.51,1.89,3.81,5.42,2.11,8.77-1.14,2.25-4.68,6.06-9.51,2.33Z"/>
                <path class="cls-60" d="M372.21,1010.67c2.42-1.07,4.43-1.9,5.39-4.13s.23-5.01-1.75-8.06c3.58.1,4.88,4.06,4.83,6.44-.08,4.33-3.43,8.1-8.48,5.75Z"/>
                <path class="cls-12" d="M330.01,1055.26c3.1-.87,5.18-.9,6.79-1.92,2.13-1.36,2.56-4.09,2.61-7.47,3.3,2.13,2.19,6.02.67,8.03-2.47,3.27-7,3.87-10.07,1.36Z"/>
                <path class="cls-71" d="M351.97,1009.92c-.67,2.11-3,4.56-4.77,4.23-1.88-.35-4.18-2.21-5.28-5.24,3.22-.38,6.29.28,10.05,1.01Z"/>
                <path class="cls-16" d="M331.83,1029.06c-1.21,2.1-3.19,3.29-5.46,3.58-1.81.23-3.87-1.33-5.65-4.68l11.11,1.11Z"/>
                <path class="cls-26" d="M315.04,1011.13c-3.14,0-6.46.66-9.57-.67,3.86-1.18,7.18-2.4,10.24-1.78.35.73.27,1.89-.67,2.45Z"/>
                <path class="cls-119" d="M250.35,1141.97c-3.85-.1-8.78,1.94-11.79-1.23,3.95.33,8.27-.64,11.79,1.23Z"/>
                <path class="cls-118" d="M290.86,1025.93l-7.25-4.1c3.63-1.46,6.28.74,7.25,4.1Z"/>
                <path class="cls-117" d="M445.82,1095.59c-.97.99-2.48,2.02-4.47.99.71-.92,2.57-1.14,4.47-.99Z"/>
                <g>
                  <path class="cls-33" d="M309.9,971.17c.83-1,1.06-.73.76.65l.73-.73c-.78-.58-.88-2.02-.3-4.32l4.26-30.32c2.58-18.32,36.91-13.47,56.34-3.27,7.59,3.98,12.37,10.25,15.42,18.31-8.46,3.07-15.41,8.14-18.48,16.43l-9.11,24.55c-13.5-1.77-26.01-2.25-39.33-1.58l-11.55-7.78,1.26-11.94Z"/>
                  <g>
                    <path class="cls-99" d="M309.9,971.17l1.19-4.4.3,4.32.75.87,18.38-30.52c3.3-.6,10.16-.66,11.73,2.09l10.26,37.9-12.55-1.77c.48-7.26-10.84-9.32-15.35-7.4-2.09.89-2.92,5.01-6.58,3.82-2.17-.7-5.64-.12-6.34-3.41-.09-.42-.53-.81-1.04-.86l-.76-.65Z"/>
                    <path class="cls-94" d="M336.46,963.73c-2.38.36-4.61.3-7.64-.9l5.18-8.63,2.46,9.53Z"/>
                  </g>
                </g>
              </g>
            </g>
          </g>
          <g>
            <g>
              <path class="cls-89" d="M512.68,11.29c.43.38,1.1.38,1.52.23,3.93,4.31,12.11,14.77,12.49,20.32.11,1.6-.55,3.06-1.39,4.38l1.21.27,11.92,30.06-.15,3.38,65.61,169.68c-24.81-11.94-50.48-15.33-73.5-3.57-5.4,2.76-9.59,7.74-10.94,12.06-1.72,5.52-.68,11.41,3.08,15.71,5.88,6.73,15.07,7.77,23.7,5.8,22.04-5.05,44.01-.43,61.56,13.89l16.09,9.88c3.93,4.14,5.17,11.29,7.04,17.3-38.19-4.47-75-2.7-111.56,6.28-13.92,3.42-26.25,8.69-38.55,15.22-11.52,6.12-19.07,14.24-27.72,23.9-4.85,5.42-18.35,4.93-24.65,1.82-20.29-35.5-72.57-45.72-111.46-48.58,6.41-11.78,12.91-23.66,19.5-35.64l5.82-4.57c23.11-8.35,45.33,4.84,52.92-11.29,2.84-6.03,2-12.89-2.93-18.4-5.42-6.05-12.95-9.94-21.32-10.47l-18.27-1.16c3.42-3.01,8.02-4.35,13.8-3.99L482.55,30.4c7.19-8.75,18.14-21.12,30.13-19.11Z"/>
              <path class="cls-9" d="M540.05,66.92l-1.43.14c-4-10.61-8.44-20.89-13.33-30.83-3.69-9.57-7.52-16.4-11.1-24.71,10.72,6.6,18.8,16.71,26.07,27.54l13.62,20.29,197.53,294.41c-8.88-3.39-18.39-4.83-26.11-10-26.03-17.48-55.28-27.17-86.39-31.57l-8.27-21.2c14.78-10.36.84-32.33-15.79-43.77-3.66-2.52-3.93-6.51-5.61-10.63l-69.18-169.68Z"/>
              <path class="cls-104" d="M512.68,11.29c-13.3,4.78-24.19,14.07-31.93,27.03l-112.68,188.51-15.38.97,80.08-135.61,44.3-71.95c7.8-12.67,24.8-16.15,35.61-8.94Z"/>
              <path class="cls-18" d="M602.84,271.69c-17.28-11.3-36.94-13.63-56.68-9.29-6.43,1.42-13.96,1.46-18.52-3.8-13.79-15.9,43.15-41.09,89.35-.57,8.75,7.68,16.3,21.27,11.44,26-1.69,1.64-4.42,1.5-6.68.02l-18.9-12.37Z"/>
              <path class="cls-49" d="M326.49,267.87l-22.68,15.8c-2.38,1.66-4.71,2.62-7.07,1.18-11.75-7.21,16.02-47.77,61.6-49.68,18.21-.76,35.35,8.54,30.49,19.3-5.38,11.92-30.72-3.85-62.35,13.39Z"/>
              <path class="cls-74" d="M342.28,269.11l-19.26,35.23c-1.59,2.8-3.03,4.71-6.06,4.98l-11.34-.83,17.28-29.16c3.82-6.45,13.04-7.92,19.38-10.21Z"/>
              <path class="cls-75" d="M540.05,66.92c-.99.45-1.46,1.66-1.77,3.02l-12.99-33.71c1.01-2.23,2.95-.39,1.9.96l12.86,29.74Z"/>
            </g>
            <g>
              <path class="cls-61" d="M828.3,445.37l-6.6-27.5c-1.47-6.11-5.56-10.1-11.79-11.81l-80.94-22.22c1.67-10.77,1.4-19.86.53-29.81l86.52,34.29c20.56,7.32,27.23,29.59,31.72,51.53,1.3,6.35-.79,12.08-6.67,13.21-5.1.98-11.12-.8-12.77-7.69Z"/>
              <path class="cls-84" d="M812.14,415.27c4.97,9.01,6.46,18.96,7.89,29.38l-22.12-34.02c4.67.49,10.03,1.91,14.23,4.64Z"/>
              <g>
                <path class="cls-30" d="M193.32,480.29c-7.45-27.76-12.17-55.85-14.15-84.25-7-8.89-11.44-32.14-5.35-41.72,4.78-7.51,34.53-19.74,42.85-22.61,17.06-5.89,34.45-11.09,52.52-12.32l-.36-1.26c44.09-4.32,90.56-1.31,129.84,19.64,11.69,6.24,16.86,15.34,25.44,25.16,6.86,7.85,26.84,5.06,34.06-1.43,6.98-6.28,10.48-12.89,17.91-17.82,15.13-10.04,31.21-16.68,49.33-20.78,47.54-10.75,96.32-9.98,143.43,2.87,17.32,4.72,32.44,12.22,47.98,20.54,8.04,4.31,7.69,30.23,4.19,35.59-4.29,6.57-9.76,9.74-10.31,18.96-1.65,27.53-6.26,55.09-16.52,80.59-7.77,19.32-21.29,33.86-40.31,41.51-11.46,4.61-22.89,8.22-35.43,9.63-31.16,3.5-62.4,1.91-92.56-7-19.68-5.82-36.88-18.24-47.17-35.68-17.07-28.92-17.43-67.25-27.51-84.95-2.91-5.1-10.45-5.92-15.76-3.95-4.24,1.57-8.59,5.96-9.98,11.75l-10.65,44.51c-7.27,30.38-27.54,58.84-58.12,67.49-41.06,11.62-98.84,13.67-134.98-8.32-13.63-8.29-22.3-21.73-28.38-36.17Z"/>
                <path class="cls-4" d="M268.84,318.14c.39.58,2.06.13,3.21,1.8-24.04,2.61-47.63,9.66-69.89,20.85-18.59,9.34-26.71,5.21-28.17,26.12-.75,10.7.73,19.92,7.31,28.29l3.26,37.53c1.37,15.73,5.69,30.32,10.02,45.29.43,1.49-.2,2.69-1.25,2.26-5.97-14.17-9.4-28.41-11.23-43.74l-4.14-34.77c-2.3-19.31-13.71-12.31-7.65-45.6,1.13-6.23,6.17-7.75,10.51-10.3,27.4-16.12,56.76-24.68,88.02-27.74Z"/>
                <g>
                  <path class="cls-28" d="M636.59,513.86c-38.49,9.92-78.7,8.04-115.1-5.36-16.49-6.07-27.51-17.55-34.16-33.33-12.63-29.98-17.74-62.2-15.41-94.79,1.62-22.64,24.32-36.09,45.94-41.6,47.19-12.02,106.13-14.5,150.34,5.02,16.2,7.15,26.33,20.66,27.2,38.63,1.48,30.43-3.07,61.08-13.38,89.82-7.51,20.94-23.18,35.88-45.44,41.61Z"/>
                  <path class="cls-100" d="M642.88,340.67c2.71,1.36,4.73,2.78,5.44,5.83l35.66,90.19.65,9.58c-6.06,29.78-17.37,54.62-47.9,62.83-36.01,9.68-74.4,8.58-109.68-3.23-17.63-5.9-29.42-17.54-36.25-34.34-11.72-28.83-16.55-59.51-14.14-90.76,1.49-19.38,21.55-31.44,40.39-36.9,37.51-10.88,88.06-13.4,125.83-3.2Z"/>
                  <g>
                    <path class="cls-43" d="M687.19,433.7l-3.2-.23s-11.05-29.07-33.15-87.21l2.1-2.67c10.93,2.52,21.14,7.68,28.89,15.86,13.26,13.99,9.77,52.56,5.36,74.25Z"/>
                    <path class="cls-86" d="M652.94,343.59l34.25,90.11-2.56,12.57-41.75-105.6c3.57.61,6.78,1.43,10.06,2.92Z"/>
                    <g>
                      <path class="cls-70" d="M571.12,361.17c6.71-3.74,16.56,5.32,21.55,10.41,13.64,13.91,16.94,27.83,20.34,46.13.27,1.44.26,2.47-1.22,3.41l1.18,7.62c1.3.46.55,1.93-.28,3.01-1.67,17.75-6.43,34.57-18.12,47.88-21.36,24.31-59.73,22.04-75.76,3.38l-9.63-11.21c-4.05,1.56-6.46-5.08-2.95-7.31.66-1.57,2.2-2.51,4.64-2.8,4.76-10.19,10.17-19.9,16.24-29.14l3.2,1.14,2.83,2.43c-.44,38.36,43.02,55.35,55.8,11.92,6.71-22.82-3.73-58.72-32.32-52.77l-2.93-2.06c-.98-.59-2.39-1.63-2.13-2.37,3.16-8.79,9.17-21.6,13.69-29.81l3.12-.74c1.52-3.51,2.44-3.21,2.75.9Z"/>
                      <path class="cls-51" d="M541.62,347.61l-2.23,4.07c-29.95,13.23-42.93,47.84-41.35,78.82,2.92,3.84,4.53,8.92,4.85,15.25l4.91,14.73-1.55,3.98,2.95,7.31-5.7,7.07c-12.49-17.66-16.35-44.34-18.11-66.04-1.17-14.42-.02-29.4,7.48-42.19,8.33-14.2,32.33-19.72,48.76-23.02Z"/>
                      <path class="cls-42" d="M575.03,351.08c3.34,2.53-.95,8.29-3.9,10.09l-2.75-.9-3.58,1.98c-38.66-8.83-61.14,30.35-63.68,64.23l-3.07,4.03c-5.57-33.39,9.94-70.07,43.58-82.9,7.89-1.58,15.83-3.18,24.86-2.52l11.69-1.35c-.49,3.29-1.93,5.13-3.15,7.33Z"/>
                      <path class="cls-44" d="M612.7,431.75l.28-3.01-1.18-7.62c-3.59-24.79-16.42-51.99-40.68-59.95-.88-4.08,2.14-6.89,3.9-10.09l15.77,10.62c17.75,17.87,25.97,42.81,23.62,67.89-.12,1.25-.91,1.66-1.71,2.16Z"/>
                      <path class="cls-1" d="M568.38,360.27c-.49,3.55-2.71,6.64-4.4,10.19l-10.29,22.73-1.51,4.1c20.14,11.71,3.15,41.83-16.21,25.87-1.15,4.59-3.03,8.09-5.65,10.52-4.16,3-5.46,7.69-7.74,12.01l-9.04,17.16c-1.35,2.57-4.82,2.73-7.3,1.63-4.29-10.65-8.38-21.93-8.2-33.97.26-17.64,6.01-34.52,15.43-49.17,12.09-18.81,34-27.93,54.9-21.07Z"/>
                      <path class="cls-100" d="M612.99,428.74c-2-2.19-1.67-5.42-1.18-7.62,1.7,2.3,1.44,4.91,1.18,7.62Z"/>
                      <g>
                        <path class="cls-81" d="M530.32,433.67c.37-5.93,1.76-11.43,4.34-17.7,2.81,5.95,7.63,9.94,13.15,8.94,5.59-1.01,9.89-5.07,10.46-11.2.77-8.24-4.62-14.44-12.3-15.2,2.72-2.36,4.98-4.24,7.73-5.33,12.16-4.83,24.86.33,32.14,11.67,11.88,18.49,10.62,43.99-2.97,61.46-5.4,6.94-13.66,10.34-21.49,10.25-19.06-.24-32.35-22.14-31.05-42.89Z"/>
                        <circle class="cls-56" cx="576.84" cy="452.83" r="7.91"/>
                      </g>
                    </g>
                  </g>
                </g>
                <g>
                  <path class="cls-59" d="M350.12,512.27c-39.09,11.54-103.25,12.17-129.99-16-22.27-23.45-30.16-81.27-27.18-114.62,2.06-23.01,16.86-35.19,38.92-41.8,39.6-11.86,80.65-12.71,121.06-4.1,24.35,5.19,53.35,16.96,55.38,42.2,2.69,33.53-1.41,67.62-15.33,98.12-8.53,18.68-23.65,30.53-42.86,36.2Z"/>
                  <g>
                    <path class="cls-77" d="M284.87,345.19l2.05,2.3c-22.77,39.8-45.75,79.41-68.94,118.82,1.83,3.58-2.11,8.76-6.18,7.15-1.13-2.74-3.14-5.56-4.1-8.78l.55-3.77,26.55-47.9-27.21-8.83-1.08-3.41c-4.16-1.06-3.45-6.68.8-7.33l2.45-2.29,31.26,9.71c3.03-4.18,5.71-8.8,8.04-13.85-10.34-5.45-21.3-10.2-32.88-14.23l-2.27-2.98c-3.74-2.26.29-8.46,4.18-7.02l2.28-2.23,35.29,14.11c6.54-10.32,12.79-20.99,18.76-31.99l3.58-.4c3.95-1.03,6.24-.06,6.88,2.92Z"/>
                    <path class="cls-41" d="M274.83,336.32c8.5-3.24,11.76,5.13,3.16,5.96l-20.59,36.23-39.32-15.72c-2.84,3.97-11.65.09-9.17-4.53,3.17-2.94,6.28-6.21,11.14-8.44,17.47-8.04,36.14-12.08,54.78-13.5Z"/>
                    <path class="cls-6" d="M206.52,400.78l32.57,10.57-26.92,48.76c-1.21,2.19-2.37,3.97-4.47,4.58-5.5-18.38-9.43-37.48-10.21-56.66-.8-4.06-1.54-10.83,2.37-12.24,1.2-.43,8.31,2.23,6.66,4.99Z"/>
                    <path class="cls-63" d="M218.08,362.78l-4.18,7.02c1.33,3.1.86,6.72-1.41,10.86-.29,5.96-2.02,10.22-5.18,12.78l-.8,7.33-8.6-2.52-.43,9.77c-.55-.42-1.5-1.6-1.38-3.06l2.03-25.87c.7-8.89,5-15.49,10.78-20.85,2.76,2.62,6.14,3.32,9.17,4.53Z"/>
                    <path class="cls-48" d="M290.55,335.15c-1.7,2.79-3.56,5.55-3.83,8.92,1.13,2.33.07,2.89-1.85,1.12l-6.88-.43c-.24-.84-.04-1.78,0-2.49l2.8-5.48-5.96-.48c.24-.83,1.37-1.41,2.92-1.39l12.8.22Z"/>
                    <path class="cls-66" d="M291.11,358.47c-2.08.54-3.17,2.18-4.6,4.2-13.85,19.52-28.37,37.71-40.53,58.39l-23.23,39.53c-1.44,2.44-2.59,4.57-4.77,5.72,1.11-5.01,3.99-9.1,6.78-14.09l60.1-107.04c.32-.56,1.18-1.14,1.85-1.12l12.18.4-7.79,14Z"/>
                    <path class="cls-65" d="M207.31,393.45c.86-8.16,2.33-16.58,6.59-23.64,3.47-.36,6.67,1.37,10.25,2.86l29.37,12.17-10.48,19.72-35.73-11.1Z"/>
                    <g>
                      <path class="cls-69" d="M219.2,487.68l-.31-2.85c22.32-42.37,45.69-86.41,72.22-126.35-1.97-2.74-1.01-6.46,2.88-11.17-4.06.57-6.49-.51-7.27-3.23-4.17-3.84-1.33-8.12,3.83-8.92,20.51-1.67,40.99,1.02,61.74,5.46,23.36,5,50.24,15.78,51.73,40.25,1.92,31.33-2.14,62.99-14.54,91.84-7.22,16.79-20.34,28.66-37.5,34.15-32.89,10.52-67.7,11.61-100.78,2.25-13.43-3.8-24.44-10.99-32.02-21.42Z"/>
                      <path class="cls-68" d="M219.2,487.68c-3.22-4.44-5.35-9.26-7.4-14.21,2.56-2.29,3.42-5.7,6.18-7.15,20.08-36.84,42.72-72.74,67.92-107.68,1.6-2.29,3.13-2.24,5.21-.17l-67.7,124.39c-1.29,2.36-1.66,4.31-4.21,4.82Z"/>
                      <g>
                        <path class="cls-58" d="M394.71,412.77c2.35,16.54-.24,31.86-6.31,47.32-6.16,15.68-16.88,27.05-32.91,32.92-12.66,4.64-25.92,2.56-36.99-6.81-14.31-12.11-22.24-31.12-22.59-50.18l.9-8.51c-2.45-9.84,1.72-23.81,6.2-33.41,25.89-55.45,89.98-38.53,91.71,18.66Z"/>
                        <path class="cls-76" d="M394.71,412.77c-3.54-24.9-22.65-52.49-48.24-49.75-30.4,3.26-46.52,34.6-49.66,64.49l-2.39,6.67c-2.5-25.49,5.81-55.66,27.33-71.14,15.38-11.06,35.51-13.12,50.93-1.87,15.76,11.5,23.34,30.28,23.21,49.41,0,1.25-.78,1.73-1.17,2.18Z"/>
                        <g>
                          <path class="cls-3" d="M339.7,465.88c-11.03-14.9-11.72-35.18-4.62-51.31,2.18,6.32,5.45,10.74,10.56,11.04s10.06-2.83,11.66-8.3c2.47-8.46-1.76-16.54-11.48-18.65,5.49-5.32,12.76-7.51,20.3-5.79,23.91,5.45,32.46,45.77,13.8,73.15-4.73,6.94-12.28,10.53-19.72,10.7s-15.02-3.44-20.5-10.83Z"/>
                          <circle class="cls-46" cx="373.61" cy="452.75" r="7.63"/>
                        </g>
                      </g>
                    </g>
                  </g>
                </g>
              </g>
            </g>
          </g>
          <g>
            <path class="cls-20" d="M813.77,500.89c-1.41,2.71-2.8,4.13-5.51,1.5-.04,2.75-2.37,4.52-7,5.3-16.63,17.67-10.95,42.21-3.01,62.65,42.81,7.4,84.32,17.55,122.48,38.95,2.58,1.45,6.35,4.28,4.51,7.29l-10.58,10.91c-27.78-14.65-58.42-24.33-90.08-30.41-2.06-.4-4.04,1.33-4.8,2.12-.96.99-1.4,2.67-.2,4.43l30.87,6.94c20.18,5.93,40.08,11.5,58.61,22.59-19.46,22.74-35.2,45.3-48.11,70.52-18.06,35.27-9.47,76.12,21.62,100.12l-11.55,9.27c-12.22,9.82-23.49,19.8-38.22,27.02,2.58-14.29,1.49-26.66-3.56-39.66l-125.5-322.63c8.12-24.73,12.29-49.7,14.01-75.75.38-5.76,3.1-10.82,8.69-11.84l58.87,16.13,60,93.5-26.83-3.41c-1.56-.2-3.29.48-3.95,1.38-.5.68-.7,1.94-.75,3.08Z"/>
            <g>
              <path class="cls-115" d="M183.36,512.19l-33.75,62.23c-2,1.94-3.89,3.76-6.35,5.15-8.47,4.78-45.22,21.72-52.87,22.19-2.58.16-4.38-.4-6.79-1.49-3.98-3.05-8.98-4.27-14.22-2.74,2.15,3.14,4.69,5.3,7.83,7.25,9.17,16.38,18.03,32.88,26.6,49.51l-.62,4.93-61.47,113.36c-3.63,5.11-12.16,1.73-17.11-.66-10.9-5.25-15.48-13.14-15.49-25.18,1.32-9.61,6.08-18.18,17.05-17.14-3.65,14.1-3.57,29.84,3.2,28.16,2.13-.53,2.11-2.47,2.75-4.68-.18-17.58,6.96-27.68,17.44-40.41,2.4-2.91,2.52-3.15,1.03-4.53-.53-4.24-2.72-6.58-5-9.29l.39-2.22c-18.83-23.65-36.25-63.79-30.19-94.52,4.24-21.49,18.82-31.72,36.82-42.82,37.81-23.31,84.9-42.64,128.28-49.64l2.47,2.55Z"/>
              <path class="cls-37" d="M183.36,512.19l-23.34,3.82c-26.1,8.1-50.68,17.97-75.72,29.17-16.43,7.34-31.06,16.74-45.64,27.13-23.47,16.72-24.15,41.27-17.16,68.73,8.08,31.75,25.71,53.5,26.22,57.45.06.44-1.22.66-2.11.35-16.06-19.11-28.31-41.09-35.45-65.27-8.09-27.37,1.83-54.43,24.85-70.92,47.4-33.96,99.33-48.32,155.57-64.43-1.37,5.55-4.75,9.31-7.21,13.97Z"/>
              <path class="cls-31" d="M149.61,574.42l-17.45,31.6-31.43,11.64c-4.93-7.22-10.66-12.45-17.12-17.4,24.71-4.5,43.57-19.47,66-25.85Z"/>
              <path class="cls-8" d="M103.21,659.21l-13.51-25.36c-5.27-9.7-10.73-18.96-12.47-29.08,15.55,9.65,25.31,24.9,32.17,42.1l-6.19,12.34Z"/>
              <path class="cls-108" d="M41.74,772.57l-8.21,15.68c-16.3-6.8-26.87-23.53-24.39-41.52,2.07,16.17,17.13,26.46,32.61,25.84Z"/>
              <path class="cls-106" d="M32.13,753.06c-3.06-17.35,3.56-34.9,18.47-44.94.37-.74,2.45-1.26,2.64-.54,1.37,5.09-1.98,7.53-4.55,10.28-9.24,9.9-12.91,22.44-16.57,35.2Z"/>
              <polygon class="cls-64" points="114.2 638.25 106.52 624.18 126.35 615.95 114.2 638.25"/>
            </g>
            <g>
              <path class="cls-5" d="M808.25,502.4c14.38,5.1,29.54,9.47,45.49,13.1,45.88,14.25,117.16,37.07,151.58,72.31,6.11,6.26,16.08,17.13,12.91,25.52.6,5.34.9,8,.9,8-18.3,46.64-55.68,81.71-93.72,112.69,3.95-.16,7.6.2,10.94,1.09,24.5,17.98,9.97,41.54,12.51,45.83.58.98,2.56,1.48,4.18,1.06,1.4-.36,2.37-1.59,2.77-3.68l2.85-14.9c.96-5.03,8.23-5.96,12.99-5.38,4.11.5,7.45,3.85,8.84,7.93.41,32.98-31.72,46.41-60.66,36.87-46.23-15.25-76.13-66.15-41.47-107.56l52.3-69.79,10.52-10.86,4.03-2.89c2.12-1.52,3.71-3.85,2.28-5.73-.95-1.25-3.85-1.7-5.71-.45l-16.55,11.05-6.1-4.86c-36.82-21.92-80.22-30.35-122.42-39.16-10.61-22.14-14.43-48.64,1.99-66.43,2.53-2.75,6.94-2.38,9.56-3.73Z"/>
              <path class="cls-52" d="M941.17,614.62c-.65,3.31-2.91,5.57-5.13,8.52l-54.23,72.35c-18.03,24.05-21.92,41.02-6.41,69.1,7.57,13.71,18.09,22.66,31.96,29.66,12.27,6.2,25.13,10.96,39.34,8.3,18.51-3.46,30.74-18.75,33.78-36.59,4.96,14.48-.9,27.98-11.82,38.34-22.38,21.26-49.19,14.32-74.72-1.16-29.62-17.97-42.53-52.6-30.9-85.59,5.13-14.55,12.74-26.98,21.23-39.92,14.41-21.96,30.05-42.06,49.97-59.24,2.27-1.95,4.79-2.95,6.93-3.78Z"/>
              <path class="cls-93" d="M813.77,500.89c1.46,1.53,2.13,2.3,5.17,2.68,65.22,8.15,127.45,31.11,180.25,70.16,16.12,11.92,23.91,30.48,23.43,48.98-5.51,1.93-4.99-5.28-4.39-9.38-6.53-23.5-38.89-44.15-62.69-55.66-45.55-22.03-92.69-38.28-141.96-49.61-3.44-.79-5.4-2.98-5.33-5.66,1.55-.8,3.77-3.33,5.51-1.5Z"/>
              <path class="cls-102" d="M1022.62,622.71c-.53,20.75-14.02,44.82-28.5,61.4s-30.85,30.15-48.65,43.01l-9.12,8c-3.49,3.06-10.76,2.58-17.07.29,40.01-33.27,74.6-62.92,96.52-112.88,1.28-2.91.02-7.45,2.44-9.2.91,3.27,2.27,6.76,4.39,9.38Z"/>
              <path class="cls-108" d="M989.22,782.72c-.52-8.11.63-15.4-3.28-22.17-5.81-10.07-18.26-12.07-28.74-6.79-2-8.08-5.33-13.75-10.25-18.69,4.13-3.83,8.65-6.96,12.64-5.68,11.25,3.61,7.85,12.62,11.8,14.52,1.2.58,2.42-.7,4.03-1.43,7.75-3.49,15.82,2.22,18.93,10,4.07,10.2.43,21.05-5.12,30.24Z"/>
              <path class="cls-95" d="M972.55,728.56l-8.28-5.82c1.61-3.12,4.12-4.33,6.88-5.61,1.12,3.39,2.15,5.86,1.4,11.43Z"/>
            </g>
            <g>
              <path class="cls-90" d="M49.38,802.83l9.27,2.35,388.59,14.39,331.55,11.44c12.22.42,24.01-1.99,33.14-8.54,8.17-5.86,9.31-17.13,8.38-25.77,4.34,11.08,8.88,22.35,7.17,35.2-2.43,18.17-21.47,18.8-42.89,18.02l-519.69-19.05-207.91-7.75c-14.67-.55-23.22-17.15-18.46-27.46,2.79-.21,3.87,2.22,3.24,7.3,3.29-2.14,5.83-2.18,7.62-.12Z"/>
              <polygon class="cls-19" points="206.77 514.29 159.09 601.01 49.38 802.83 39.04 807.55 38.52 795.65 45.23 781.1 196.83 503.27 206.77 514.29"/>
              <path class="cls-15" d="M448.48,416.53c-6.81,1.27-9.24,14.47-11.53,25.21-14.38,67.33-34.74,99.74-108.07,107.55-31.44,3.35-62.56.19-91.22-12.12-7.38-3.17-13.71-6.89-17.99-12.64,41.74,21.04,103.22,20.83,147.03,4.09,26.68-10.2,44.08-34.68,52.42-61.02l11.84-48.15c1.31-5.31,3.98-12.36,10.12-12.44,4.97-.06,6.55,5.99,7.41,9.52Z"/>
              <path class="cls-20" d="M705.14,502.5c-28.35,58.5-127.26,56.02-182.4,33.75-4.33-1.75-8.36-4.1-10.22-7.89,24.76,9.91,51.35,13.21,78.62,13.23,42.88.04,91.15-11.81,108.12-54.05l5.89,14.96Z"/>
              <g>
                <path class="cls-97" d="M448.48,416.53l10.28,42.16c3.63,14.9,8.67,29.26,18.27,41.58,9.34,11.99,21.83,22.63,35.48,28.09,35.51,18.73,88.02,24.4,127.74,15.71,24.45-5.35,47.91-16.99,60.51-39.48l4.37-2.09,115.16,294.19c8.92,28.07-14.68,35.26-38.32,37.27-240.31-7.9-481.67-16.84-722.44-25.84-5.77-.04-9.16-1.8-10.16-5.3l-2.07-2.29c51.92-95.93,103.94-191.3,156.06-286.1l3.4-.14,12.9,10.24c63.9,38.41,185.39,35.9,206.27-51.85,3.94-18.96,9.12-37.13,15.55-54.5,2.13-3.06,4.14-4.63,7-1.65Z"/>
                <path class="cls-107" d="M397.18,615.6c-17-4.4-33.66-9.16-46.5-22.02,16.27,5.33,29.99,10.35,46.08,13.31,42.01,7.72,84.4,3.38,122.9-15.62,13.75-6.79,25.57-15.58,35.96-26.59-6.42-2.16-11.37-1.96-15.19-7.38,12.48-3.58,25.92.43,33.14,10.8,3.34,4.79,4.45,11.14,1.4,16.33l-11.27-12.82c-10.5,11.84-21.16,20.77-34.65,27.89-40.37,21.31-86.63,27.82-131.89,16.11Z"/>
                <path class="cls-38" d="M492.69,645.44c-21.39,18.07-49.92,19.13-74.05,6.31-4.66-2.47-10.29-4.62-10.01-11.38,25.25,8.09,49.78,8.21,73.74-.28,4.18-1.48,8.01-2.31,13.2-2.5.71,2.56-.19,5.57-2.88,7.84Z"/>
              </g>
            </g>
          </g>
        </g>
      </g>
    </g>
  </g>
</svg>