<?xml version="1.0" encoding="UTF-8"?>
<svg id="Capa_2" data-name="Capa 2" xmlns="http://www.w3.org/2000/svg" viewBox="0 0 1328.99 1029.79">
  <defs>
    <style>
      .cls-1 {
        fill: #fff;
      }

      .cls-2 {
        fill: #fffffd;
      }

      .cls-3 {
        fill: #fffffe;
      }

      .cls-4 {
        fill: #010101;
      }
    </style>
  </defs>
  <g id="Capa_1-2" data-name="Capa 1">
    <g>
      <path class="cls-4" d="M889.73,75.37c-1.86,4.3-5.51,5.81-9.43,4.7-3.83-1.08-6.42-5.41-4.7-9.55l14-33.64,14.35-33.36c1.51-3.52,6.03-4.17,8.76-3,3.45,1.48,6.13,5.03,4.61,8.8l-13.78,34.05-13.81,31.98Z"/>
      <path class="cls-4" d="M977.21,87.53l-48.59,23.83c-4.06,1.99-8.38-.43-9.9-3.99s-.25-8.18,3.79-10.2l61.24-30.71c3.81-1.91,7.74,1.96,8.76,4.57,1.65,4.2-.3,8.01-4.19,10.2l-11.12,6.29Z"/>
      <path class="cls-4" d="M375.54,205.86c2.76,3.91,1.36,8.66-1.87,10.96s-8.29,1.54-11.04-2.25l-27.71-38.22-3.98-6.35c-1.86-2.97-1.46-6.59.48-8.96s5.62-4.25,8.79-2.35c3.38,2.02,5.89,5.38,8.21,8.68l27.12,38.5Z"/>
      <path d="M352.12,932.31c.81,4.56-2.14,8.03-6.17,8.64s-7.71-1.68-8.67-6.1c-4.19-19.14-6.01-38.48-6.49-58.1-.09-3.63,3.17-5.68,6.05-5.98,4.75-.5,7.87,2.09,8.28,6.67l2.93,32.16,4.06,22.72Z"/>
      <path class="cls-4" d="M993.61,169.42c.54,4.8-3.45,7.69-7.5,7.64l-53.93-.73c-4.69-.06-7.85-3.3-7.85-7.58,0-4.05,3.17-7.71,7.87-7.57l55.15,1.67c2.98.09,5.93,3.54,6.27,6.57Z"/>
      <path class="cls-4" d="M326.86,238.78c4.14,2.16,5.09,7.52,2.96,10.78-2.56,3.92-7.3,4.57-11.4,2.36l-41.18-22.15c-3.95-2.13-4.17-7.53-2.04-10.7,2.76-4.09,7.18-3.71,11.4-1.48l28.9,15.26,11.37,5.93Z"/>
      <path class="cls-4" d="M297.42,927c2.62,3.46.51,8.47-2.19,10.29-3.23,2.19-7.69,1.7-10.35-1.84l-24.24-32.21c-2.59-3.44-1.54-8.35,1.82-10.5,3.59-2.3,8.04-1.34,10.84,2.37l24.12,31.88Z"/>
      <path class="cls-4" d="M280.12,964.89c4.34,1.01,5.03,6.21,3.7,9.5-1.52,3.76-5.34,5.12-9.69,4.1l-14.35-3.36c-4.29-1-7-4.11-6.46-8.06s4.45-7.41,8.98-6.35l17.81,4.17Z"/>
      <g>
        <path d="M1141.63,940.93c-4.25,2.71-9.27.95-11.53-2.78s-1.55-8.27,1.96-11.41c4.54-4.06,8.42-8.4,11.34-13.58,9.29-16.46,3.08-36.39-13.97-44.46-4.62-2.19-5.84-7.9-3.83-11.77,2.5-4.8,8.26-5.65,12.88-3.03,9.35,5.3,17.44,12.29,21.85,22.32,7.34,16.71,5.19,36.33-5.42,51.03-3.83,5.31-7.61,10.05-13.28,13.68Z"/>
        <g>
          <path d="M720.9,794.59l9.1,58.79,5.17,31.56,8.77,49.35c23.55,1.18,52.57,11.15,66.49,30.01,5.93,8.04,9.38,17.87,7.61,27.95-3.85,21.97-27.54,32.04-48.91,34.99-23.63,3.26-47.54,2.32-70.68-3.14-8.24-1.94-15.63-4.89-22.25-9.5-11.03-7.46-15.61-19.77-12.42-32.52,2.96-11.82,9.28-22.01,19.61-29.32l-28.51-157.7c-31.37.01-62.41-1.5-94.03-4.49l-11.24,153.52c20.53,10.01,38.33,28.63,35.26,52.04-1.67,9.73-7.64,17.33-16.02,22.41-17.44,10.58-39.13,11.5-59.65,11.21-16.94-.24-33.43-1.52-49.52-6.58-18.77-5.9-34.46-16.63-33-37.22,4.54-28.54,31.7-45.84,59.84-49.84l4.92-91.62,5.53-62.31-45.27-9.69c-15.1-3.23-28.99-8.95-42.96-15.21-15.01-7.93-25.03-15.45-30.8-31.82-5.26-15.33-8.83-30.4-11.49-46.55-5.72-34.67-7.87-69.3-7.57-104.12-35.24-3.2-69.39-4.48-103.87-4.61l-3.74,38.33c-1.16,5.83-5.11,9.62-11.11,10.64-43.64,7.36-87.19,11.18-131.63,12.4-24.3.67-47.64.55-71.73-1.08l-16.79-2.27c-4.32-.59-7.69-3.78-8.84-8.24-3.41-13.11-6.14-26.11-7.11-39.75l-3.69-51.48c-.94-25.16-.03-49.75,2.96-74.57.93-7.76,5.72-12.35,13.22-13.66,19.08-3.34,37.66-6.8,57.16-7.7l51.12-2.36c36.45-1.68,72.27-.22,108.46,3.97,6.93.8,11.24,4.93,12.74,11.75,4.25,19.41,6.67,38.92,8.45,58.72.05.6.67,1.05,1.21,1.13l44.33,1.4,61.65,3.16,8.33-58.86,8.07-34.55c2.01-8,4.55-15.43,7.94-22.9,2.39-5.27,6.08-9.49,11.19-12.36,23.18-13.01,62.42-20.13,89.88-23.09,28-3.03,55.28-4.59,83.7-5.56l-.27-17.93-4.31-87.7c-24.5-.61-48.35-1.5-72.36-4.5-4.94-.62-9.21-1.95-12.89-4.95-2.64-3.24-4.18-7.03-4.9-11.43-5.07-31.07-8.64-61.84-10.43-93.43-1.36-24.07-1.53-47.24,1.54-70.92.8-6.2,4.82-10.79,11.1-11.95,30.56-5.65,61.03-8,92.33-9.33,32.75-1.39,64.59-1.47,97.11,1.03l37.88,4.93c4.1.53,7.26,3.53,8.14,7.39l4.26,18.66c5.6,39.44,7.58,78.8,4.96,118.64-.82,12.5-2.02,24-4.48,35.99-.97,6.18-5.28,10.12-11.62,11.39-25.2,4.37-50.44,6.39-76.65,7.7l5.93,106.69c33.4.76,66.25,2.64,99.51,6.49,25.5,2.96,49.81,7.74,74.21,15.16,17.43,5.62,38.37,17.04,44.73,34.12,5.86,15.71,8.89,31.42,11.49,48.09,8.29,53.27,11.49,106.59,9.01,160.82l59.28,1.85,79.85-.5,56.19-1.45c.63-17.39,1.61-34.33,4.25-51.32.83-5.36,4.47-9.28,9.53-10.42,15.66-3.67,30.7-6.24,46.87-8,46.56-5.05,92.79-7.04,139.64-5.61l35.37,3.04c6.66.57,11.91,4.78,13.33,11.04l3.27,14.45c5.47,34.25,7.56,68.43,5.64,103.21l-5.61,50.63c-.71,6.4-5.8,10.56-12.2,11.39l-1.38.33c-49.91,8.36-99.86,12.38-150.63,12.54l-62.82-3.01c-7.18-.34-12.68-4.76-14.35-11.71-3.78-15.73-6.31-31.39-8.2-47.63-.17-1.49.16-3.28-.78-4.49-.62-.8-2.82-.13-4.03-.11l-1.63.03-90.78,2.18-23.02.1-6.65-.14-1.35-.07c-.53-.03-1.05-.34-1.3-.26-.45.14-.33.94.21,1.51l12.88,13.57c28.43,33.9,24.76,76.66,25.81,78.68.33.62,19.24,1.56,33.76,8.88,15.5,7.81,28.95,18.94,38.98,32.94,7.37,10.3,10.54,22.52,10.25,34.69-.19,7.82-4.51,12.96-7.17,19.46l-3.16,22.76c-.05.35-.12,1.48-.12,2.73,10.1-2.8,21.38-3.59,31.43,1.69,11.64,6.12,17.25,19.17,15.19,32-4.52,28.17-36.52,44.42-63.58,46.82-7.39.65-13.39-1.52-19.26-5.26-9.77-6.22-13.73-18.53-7.73-28.55,1,.34,1.03-.81.27-.76-13.18,5.19-26.16,9.5-39.92,11.66-22.33,3.51-42.87-6.59-53.79-25.74-4.52-7.91-6.77-15.73-5.79-25.02.94-8.98,4.36-17.11,11.03-23.78-15.93-.37-29.43-10.57-33.71-25.42-6.15-21.35,2.76-40.93,18.87-55.68,5.69-5.21,9.73-11.44,10.89-19.32,5.15-35.02-23.4-61.92-55.99-71.24-4.03,15.67-9.7,35.63-20.48,46.14-32.26,31.45-120.92,34.18-121.69,35.83-.22.48.09,1.1.19,1.74Z"/>
          <g>
            <path class="cls-1" d="M997.4,882.19c1.67,3.81-17.78,16.08-34.14,16.49-7.68.19-13.42,5.44-13.37,12.85s6.26,12.53,14.14,12.01c18.76-1.25,40.05-9.04,51.83-23.15,9.82-11.76,8.26-28.42-3.66-37.84-8.14-6.42-17.88-8.73-28.3-7.84-2.68.23-5.32.54-8.03-.02-5.26-8.34-17.83-15.4-23.07-8.77-13.03,16.52-35.73,15.46-39.22,5.95-5.67-15.46,6.18-28.43,17.79-39.25,5.82,4.08,12.34,3.65,17.27-.94,4.58-4.26,10.49-6.62,16.73-7.67,18.15-3.05,36.17,1.4,51.13,11.75,9.51,6.58,17.19,14.7,21.85,25.28,1.95,4.43,2.83,9.43,1.48,14.08s-11.42,6.15-8.58,17.75c4.14,16.94-2.47,33.18-17.11,42.61-10.01,6.45-20.7,10.84-32.37,14.03-7.88,2.16-15.92,4.5-24.26,3.13-9.74-1.61-17.72-9.71-20.55-18.78-3.46-11.07,6.74-19.21,17.14-23.56,9.24-3.86,18.62-7,28.46-9.1,5.94-1.27,13.87-1.21,14.83.98Z"/>
            <path class="cls-1" d="M943.02,785.18c7.17-49.9-28.83-85.25-74.97-98.65l1.68-13.3c22.36,4.37,41.94,15.45,58.22,31.04,11.41,10.92,19.3,23.6,24.05,38.59,3.77,11.89,6.44,23.66,5.24,36.48l-14.21,5.84Z"/>
            <path class="cls-1" d="M1072.3,938.63c-8.13,9.46-21.54,14.82-34.77,16.99,7.97-7.29,4.04-16.68,6.18-19,6.2-6.74,14.09-12.02,22.94-14.45,4.22-1.16,9.62.67,10.31,5.11.64,4.12-2.03,8.29-4.66,11.36Z"/>
            <g>
              <g>
                <path class="cls-1" d="M1070.53,658.05l-113.16,2.19-50.44-.84-32.66-11.28c-1.38-.48-1.04-4.42.26-5.26l86.47,2.09,108.82-2.09.71,15.17Z"/>
                <g>
                  <path class="cls-1" d="M1164.02,724.89l-60.02-2.08c-7.62-36.74-10.17-74.23-8.31-111.94l2.8-33.07,16.67-2.57c37.23-5.48,74.18-7.78,111.95-8.42,23.68-.4,46.47.08,70.1,2.49,5.36,31.35,7.72,62.47,6.72,94.18l-4.5,50.16c-45.18,7.09-89.47,11.02-135.42,11.26Z"/>
                  <path d="M1147.04,712.52c-9.01-.13-16.67-.44-24.82-2.1-4.05-.83-6.98-3.18-7.6-7.26l-4.02-26.68c-3.03-26.69-3.25-53.23.06-79.81.5-4,2.95-6.92,6.55-7.64l16.1-3.24c43.61-5.57,100.02-9.22,143.2-4.78,4.71.48,7.68,3.68,8.87,8.1,3.03,11.26,3.95,22.36,4.76,34.21,1.65,24.24,1.12,47.96-2.82,71.82-.76,4.58-3.41,7.68-7.99,8.42l-24.88,4.04c-35.67,4.38-70.96,5.47-107.42,4.93Z"/>
                </g>
              </g>
              <g>
                <path class="cls-1" d="M359.96,535.19l-.78,14.7c-34.8-2.25-68.79-4.26-103.39-4.28v-15.23s66.32,2.6,66.32,2.6l37.85,2.2Z"/>
                <g>
                  <path class="cls-1" d="M228.02,596.29c-63.31,9.67-129.87,14.07-194.34,9.31-3.06-15.27-5.48-30.26-6.53-46.11-2.32-22.4-3.14-44.15-1.72-66.55l1.85-29.28c17.76-3.33,35.02-5.21,53.09-6.56,47.58-2.71,95.05-4.21,142.83,1.4,7.09,39.71,10.5,80.57,6.3,120.71l-1.48,17.08Z"/>
                  <path d="M77.9,595.53c-9.53-.03-17.72-.68-26.37-2.18-3.17-.55-5.71-2.44-6.35-5.58l-3.37-16.5c-3.4-23.06-4.72-45.97-3.94-69.25l2.25-20.4c.41-3.76,3.21-6.3,6.91-7.17,9.16-2.15,17.98-3.28,27.64-4.12,35.19-3.06,70.09-3.75,105.42-2.62,8.57.27,16.44.78,24.49,2.44,4.5.93,7.19,3.85,8.06,8.34,5.05,26.03,6.61,52.19,5.45,78.77l-2.42,22.66c-.37,3.43-3,5.71-6.46,6.21l-31.1,4.47c-33.31,3.3-66.15,5.05-100.18,4.95Z"/>
                </g>
              </g>
            </g>
            <g>
              <path class="cls-1" d="M555.93,997.77c-17.1,9.97-51.61,8.31-72.53,5.62-9.58-1.23-18.56-3.46-26.89-7.74-4.46-2.29-6.2-6.83-4.16-11.29,6.67-14.57,25.38-23.31,41.51-24.59,19.95-1.58,37.21.93,53.53,12.3,5.06,3.52,9.03,7.9,11.96,13.1,2.65,4.7,1.36,9.8-3.44,12.59Z"/>
              <path class="cls-1" d="M766.18,1002.76c-19.8,2.36-39.11,1.84-58.29-1.34-10.18-1.69-23.19-6.62-19.64-15.51,5.29-13.23,18.89-21.34,32.6-24.78l23.52-1.52c15.06.15,29.31,4.57,40.94,14.16,3.54,2.92,6.88,6.62,8.01,11.14,2.44,9.76-14.93,16.39-27.15,17.85Z"/>
              <path class="cls-1" d="M525.37,936.59l-14.38-1.8c2.25-50.17,5.17-99.05,10.24-148.75l15.3,2.08-11.16,148.48Z"/>
              <polygon class="cls-1" points="711.4 894.97 718.82 936.83 705.9 939.67 679.79 794.45 696.15 794.14 703.75 845.85 711.4 894.97"/>
              <g>
                <path class="cls-3" d="M810.36,747.9c-27.81,13.44-75.51,18.96-107.59,20.85-76.3,4.49-152.49-.82-227.3-15.95-20.71-4.19-47.15-12.35-64.1-23.8-4.18-2.83-7.05-6.32-8.94-11.04-4.78-11.92-7.94-23.86-10.23-36.76-6.94-39.07-9.16-78.16-8.24-117.96.68-29.59,3.58-58.02,7.59-87.22,2.75-20.03,6.19-39.08,12.27-58.27,4.11-12.94,4.75-14.36,17.01-19.04,17.54-6.7,35.37-10.51,54.05-13.11,21.06-2.93,41.46-4.72,62.83-5.92,67.41-3.77,134.78-1.91,201.88,5.77,21.42,2.45,41.81,6.74,62.03,13.28,7.96,2.57,14.98,6.09,21.6,10.83,3.79,2.72,6.46,5.98,8.06,10.41,4.03,11.21,7.31,22.39,8.96,34.28l5.76,41.25,3.74,46.04c2.13,26.21,1.53,51.68.2,78.09-1.32,26.19-3.96,51.41-9.29,77.02-3.01,14.45-7.35,28.19-15.32,40.61-3.26,5.09-9.63,8.07-14.98,10.66Z"/>
                <path d="M736.07,749.56c-50.07,6.04-99.31,6.27-149.2,2.53-33.97-2.54-66.91-6.52-100.07-13.53-13.21-2.79-25.37-6.18-37.92-10.86l-19.66-9.04c-8.22-3.78-12.87-11.27-15.51-19.93-10.82-35.51-13.51-82.42-13.8-120.19-.21-27.73,1.71-54.52,4.98-82.03,2.71-22.79,6.89-44.54,13.64-66.32,1.29-4.16,2.79-8.78,6.11-11.57,13.83-11.61,56.67-17.59,77.54-19.93,35.18-3.95,69.87-5.01,105.33-5.06l61.43,1.8,60.61,5.15c17.02,1.45,33.07,5.11,49.43,9.63,10.54,2.91,20.29,6.86,29.46,12.51,3.66,2.26,6.5,5.07,7.95,9.08l4.67,12.91c3.89,15.5,7.19,30.58,8.42,46.63l5.46,71.14c1.05,31.06-.46,61.37-4.17,92.16-2.42,20.07-7.86,50.57-17.56,66.92-3.94,6.65-10.89,10.71-18.09,13.58-18.98,7.56-38.23,11.91-59.07,14.42Z"/>
                <path class="cls-3" d="M550.97,566.26c-19.55,4.77-39.22,5.36-58.56,1.3-5.2-1.09-8.68-3.69-11.03-8.4-11.1-22.24-6.64-57.62.07-81.91.7-2.52,2.51-4.43,5-4.55,7.26-2.62,14.44-2.56,22.07-2.89,14.16-.61,27.89-.78,41.82,2.05,1.39.28,4.67.67,5.18,2.21,4.63,14.79,5.67,29.69,5.66,45.16,0,14.67-1.33,28.74-5.92,42.59-.69,2.09-1.67,3.79-4.3,4.43Z"/>
                <path class="cls-2" d="M756.24,564.39c-17.97,7.9-43.18,7.05-61.99,3.11-4.91-1.03-8.54-4.13-9.59-9.01l-4.68-21.73c-2.06-19.33-.69-38.44,3.29-57.34.3-1.41,1.38-4.39,2.94-4.67,18.35-3.33,55.57-6.66,69.6,1,1.94,1.06,2.86,4.59,3.51,6.79,5.37,18.21,7.02,37.15,4.58,55.99l-3.97,17.38c-.67,2.94-1.94,5.66-3.7,8.46Z"/>
                <path class="cls-3" d="M665.85,618.94c1.65,14.67-43.89,29.22-76.4,12.82-7.93-4-15.88-10.95-10.63-16.47,7.65-8.06,22.78-10.92,34.5-12.87,14.66-2.44,29.42-1.03,42.86,5.6,4.27,2.11,9.11,5.89,9.67,10.93Z"/>
              </g>
              <g>
                <rect class="cls-1" x="593.33" y="247.32" width="15.53" height="105.86" transform="translate(-14.36 30.65) rotate(-2.89)"/>
                <g>
                  <path class="cls-1" d="M695.45,215.67c-65.68,9.5-130.16,9.2-195.66,3.28l-5.08-36.18c-5.11-36.38-6.51-72.73-4.37-109.75,18.69-2.95,36.56-4.96,55.14-5.75l63.6-2.72c27.93.15,55.19,1.4,83.08,4.68,3.63,17.69,5.25,34.93,6.4,53.09,1.98,31.36,1.23,62.28-3.11,93.35Z"/>
                  <path d="M675.27,205.45c-34.05,7.35-103.88,6.36-141.12,4.36l-16.21-2.39c-4.44-.66-7.37-4.19-8.26-9.01-6.09-32.99-8.6-66.52-7.12-100.21.18-4.12.58-8.73,3.18-11.62s7.37-3.64,11.19-4.24c16.75-2.65,32.96-3.44,50.02-4.25,31.76-1.51,75.19-2.8,105.27,2.85,4.18.79,7.54,3.36,8.4,8.04,5.5,30,6.98,60.34,4.98,90.9-.45,6.92-1.03,13.19-2.96,19.76-.94,3.19-4.14,5.12-7.37,5.82Z"/>
                </g>
              </g>
            </g>
          </g>
        </g>
      </g>
    </g>
  </g>
</svg>