<?xml version="1.0" encoding="UTF-8"?>
<svg id="Capa_2" data-name="Capa 2" xmlns="http://www.w3.org/2000/svg" viewBox="0 0 1280.88 1179.07">
  <defs>
    <style>
      .cls-1 {
        fill: #fefefe;
      }

      .cls-2 {
        fill: #fff;
      }

      .cls-3 {
        fill: #fffffd;
      }

      .cls-4 {
        fill: #fffffe;
      }

      .cls-5 {
        fill: #010202;
      }
    </style>
  </defs>
  <g id="Capa_1-2" data-name="Capa 1">
    <g>
      <g>
        <path class="cls-5" d="M563.47,1176.65c-6.11-.69-10.01-5.23-11.3-11.2-7.9-36.67-9.97-75.01-4.24-112.3.91-4.44,3.68-8.73,8.42-9.34l44.25-5.74,1-82.23-.42-63.78c-.04-5.95,5.96-8.78,12.53-8.95l26.5-.65,233.76-16.39,45.82-3.16c2.48-.17,3.82-1.92,3.81-4.59l1-135.34-.33-54.84c-.03-5.42.49-10.21,6.92-11.99,11.26-3.12,23.49-4.68,35.37-3.89,8.5.57,14.25,6.98,12.76,15.54l4.47,190.63-.98,36.1-4.57,7.93c-4.53,5.41-11.96,8.36-19.09,8.79l-85.04,5.09-228.5,9.33v73.29l1.8,36.19c19.34-.57,37.81.02,56.64,1.89,5.25.52,9.34,4.11,9.92,9.32l4.24,37.67c1.37,25.55.37,50.54-2.42,75.92-.71,6.4-4.63,10.71-11.41,11.77-40.96,6.42-82.32,8.4-123.9,6.84l-17.01-1.91Z"/>
        <g>
          <path class="cls-2" d="M635.68,1160.72c-22.83,1.96-44.34,1.23-66.43-.19-3.06-19.74-5.65-38.57-6.23-58.18l1.62-42.94c24.57-3.83,48.63-5.71,73.53-6.69,20.04-.78,39.4-.81,59.58,1.05,4.36,34.05,4.21,67.72.88,101.54l-62.95,5.41Z"/>
          <path d="M682.04,1148.93c-33.39,5.12-66.61,6.37-99.82,3.73-3.93-.31-6.18-2.36-6.87-6.07-4.58-24.63-5.51-49.67-2.76-74.62.15-1.33.48-3.83,1.67-4.32,15.49-6.4,50.82-7.02,70.35-7.5l39.32.67c3.94.07,6.05,1.85,6.68,6.06,3.13,21.13,3.97,42.42,2.48,63.89-.34,4.95-.69,9.86-2.75,14.25-1.05,2.25-5.18,3.42-8.3,3.89Z"/>
        </g>
      </g>
      <g>
        <path class="cls-5" d="M474.1,680.32c-9.16-6.02-15.25-13.6-17.61-24.03-4.56-17.59-6.69-35.01-7.88-53.35l-1.15-70.78h-89.85l1,55.96-1,54.99-.04,96.63,1.62,79.77c.21,10.11-.11,18.05-8.03,21.45-11.87,5.08-32.35,9.17-39.75-.46-2.44-3.18-2.87-7.3-2.81-11.53l1.86-120,4.22-131,1.34-47.5-89.51-2.24-57.59-1.11c-1.04,9.42-1.19,18.38-4.03,27.07-2.01,6.13-8.32,9.14-14.47,10.48-33.66,4.46-66.96,7.13-101,6.7l-32.54-1.8c-6.3-.35-10.1-5.04-10.95-11.2-3.15-22.8-5.14-45.24-5.81-68.37-.55-19.16.71-37.36,1.85-56.46.33-5.6,3.22-10.74,9.51-11.86,23.53-4.19,47.19-5.75,71.36-6.88,20.66-.96,40.56-.53,60.91,2.23,4.32.59,8.32,1.45,12.18,3.21,3.67,1.61,5.89,4.59,6.85,8.57,4.39,18.13,6.61,36.39,6.86,55.33h51.78l55.66,1.91,42.51,1.18,61.52.91h68.96c1.29-16.19,2.89-32.9,6.96-49.55,1.99-8.14,4.29-15.78,8.92-22.69,7.14-6.89,16.01-10.37,25.68-12.44,18.86-4.03,37.14-6.59,56.47-8.14,22.04-1.76,43.02-2.93,65.21-3.03,34.95-.15,69.22,1.19,103.96,4.46,15.57,1.47,37.17,5.1,46.93,16.21,4.1,4.66,5.68,10.74,7.87,16.44,3.43,11.93,5.7,23.49,7.19,35.87l3.66,54.43,55.07-4.23c2.71-.21,5.34-.95,7.64-1.77,2.83-1.15,3.6-3.21,2.95-6.21l1-90.05v-114.19l-.63-37.84c-1.84-5.38.86-10.48,5.84-13.12,4.73-2.78,10.23-3.29,15.75-4.01,7.69-1,14.84-1.85,22.57-.47,5.07.91,11.53,4.39,11.48,10.13l1,16.76,1,83.46-1,127.35v45.66c-1.02,1.77,2.81,2.66,4.44,2.95h94.9l80.14-3.58,31.55-1.18,2.88-36.23c2.84-4.77,7.38-7.49,13.03-7.67,27.65-4.44,54.91-7.77,82.91-9.02,16.42-.73,31.78-.16,48.3,1.03,3.49.25,10.28,2.22,11.11,6.41,5.17,25.99,6.39,51.94,5.89,78.55l-3.6,50.2c-.41,5.73-7.05,5.37-11.39,6.11-43.98,7.47-87.92,10.59-132.32,7.51-5.48-.38-11.07-4.11-12.16-9.15-3.41-15.77-4.09-31.24-4.77-47.17l-19.85.87-101.08,4.31-125.34,1.86c-9.42-.22-17.13-4.16-21.76-12.39l-64.3,5.43c-.9,33.65-1.68,69.96-14,100.75-1.7,4.77-4.52,7.99-8.69,10.56-11.83,7.3-24.24,12.6-37.88,15.76-12.03,2.79-23.64,4.94-36,6.03-.45.04-1.31-.03-1.41.21-.22.54.36,1.3.57,1.91l18.77,53.85,4.95,15.77c.33,1.04.71,1.8,2.04,1.83,11.98.28,23.4,3.63,32.51,11.22,9.03,7.52,11.88,19.99,5.26,29.93-3.21,4.82-8.35,8.12-13.45,10.71-11.59,5.89-23.77,8.49-36.73,9.05-8.95.39-17.37,1.05-26.04-1.45-9.75-2.81-18.37-10.84-18.31-21.56.05-9.38,6.01-18.17,12.56-24.2,1.78-1.64,2.32-2.62,1.51-5.12l-11.33-34.16-15.16-43.99-66.84-.95-25.88,87.16c4.34,2.83,8.43,5.24,11.22,9.73,5.98,9.61,6.42,22.83-.64,32.12-13.48,17.73-46.29,20.61-68.24,18.31-11.48-1.2-24.64-6.99-28.47-17.89-3.28-9.88-.95-20.27,5.99-27.98,9.49-10.54,21.87-16.7,36.01-19.14l26.42-85.04c.23-.73.46-1.13.37-1.6-.13-.71-.68-.76-1.58-.94l-22.61-4.73c-12.39-3.58-24.07-8.69-35.01-15.88Z"/>
        <g>
          <path class="cls-1" d="M1137.68,609.44c-4.31-31.87-4.83-62.8-2.8-94.07l.4-13.35,66.15-6.86,58.11-.8c4.64,36.43,5.06,72.24,1.19,109.1l-71.03,5.7-52.03.28Z"/>
          <path class="cls-5" d="M1241.84,596.4c-23.92,3.34-70.02,7.68-91.36,3.99-3.47-.6-5.28-2.73-5.85-6.12-1.94-11.52-2.28-22.89-2.57-34.72-.34-14.13-.5-27.91,1.24-41.76.62-4.92,2.94-8.05,7.68-8.77l23.42-3.55,54.82-3.87,16.35,1.33c3.58.29,5.55,2.8,6.1,6.61,3.36,23.33,4.32,46.8,2.45,70.42-.34,4.35-.88,8.81-3.19,12.28-1.79,2.7-5.79,3.69-9.08,4.15Z"/>
        </g>
        <g>
          <path class="cls-4" d="M730.18,675.03c-48.27,14-109.7,14.75-160.09,11.09-25.62-1.86-75.22-8.38-90.82-26.88-4.99-5.92-6.05-15.55-6.86-23.05l-5.01-46.66c-1.55-29.57-.73-58.26,1.53-87.76l5.27-49.05c.84-7.84,5.19-25.26,10.19-27.13,10.11-3.77,20.07-5.88,30.93-7.26,34.39-4.35,68.29-6.96,103.05-7.23l59.67,1.69c18.27.52,35.8,2.49,53.82,5.56,6.22,1.06,12.79,3.29,17.46,7.33,7.05,6.1,11,42.55,12.3,56.6,3.21,34.86,3.78,69.24,2.61,104.31-.58,17.55-2.35,34.05-5.33,51.13l-6.26,25.27c-6.6,5.74-13.97,9.56-22.46,12.02Z"/>
          <path class="cls-5" d="M709.81,670.38c-21.37,4.81-41.93,6.93-63.59,7.83-32.22,1.33-63.67.86-95.56-3.27-16.93-2.19-56.7-10.51-63.51-22.74-4.49-8.06-6.02-17.64-7.05-26.68l-3.87-33.84c-2.05-36.53-.89-72.53,3.1-108.89,1.48-13.53,3.71-26.12,7.14-38.99,1.55-5.8,5.31-9.86,10.9-11.93,6.69-2.48,13.44-3.79,20.73-4.93,30.21-4.72,60.06-6.68,90.8-7.12,30.31-.44,59.72.27,89.72,3.2,13.18,1.29,38.67,3.52,44.01,12.27,6.69,10.96,10.87,47.4,11.61,63.19l1.7,36.19c.8,17.11.24,33.42-.74,50.48-.96,16.78-2.18,32.93-5.35,49.41l-4.11,15.63c-1.33,5.08-4.89,8.68-9.66,10.97-8.38,4-16.71,7.07-26.27,9.23Z"/>
          <path class="cls-4" d="M546.95,546.79c-5.52-.54-7.35-13.14-7.34-20.23l.06-38.72c0-2.57.71-4.89,2.04-6.99,10.59-2.12,20.99-3.36,31.82-2.68,2.87-.26,4.86,1.63,5.21,4.63,2.18,18.43,2.58,37.04.89,55.53-.39,4.29-2.63,7-6.69,7.59-8.54,1.25-16.97,1.76-25.99.88Z"/>
          <path class="cls-3" d="M706.5,542.12c-9.58,2.47-30.12,3.85-32.02-4.08s-2.93-15.24-2.62-23.16l1.25-32.37c.08-2.03,1.45-3.61,3.45-4.04,10.01-2.14,20.1-2.45,30.18-.62,2.26.41,3.46,2.26,3.67,4.53,1.63,17.47,2.22,34.82.47,52.29-.29,2.9-1.55,6.72-4.39,7.45Z"/>
          <path class="cls-2" d="M583.03,582.34c-.29-4.43,4.03-7.71,8.04-7.94,13.01,16.44,34.25,22.64,53.45,14.95,7.42-2.97,12.33-9.11,17.15-15.18,1.98-2.5,6.11-1.5,8.08.31s2.77,5.41,1.16,8.32c-6.76,12.26-18.29,20.63-32,23.67-19.82,4.39-40.19-2.33-52.78-18.25-1.21-1.53-2.96-3.68-3.1-5.88Z"/>
        </g>
        <g>
          <path class="cls-2" d="M77.57,553.06c-19.5,1.8-37.69.41-56.73-.04-4.11-39.5-6.36-76.98-3-116.28l22.18-2.2c35.12-2.72,70.58-4.71,105.73.06,6.4,36.56,6.64,75.22,2.07,111.98l-70.25,6.48Z"/>
          <path class="cls-5" d="M49.07,544.98l-15.69-1.65c-2.9-.31-4.48-2.58-4.96-5.44-2.43-14.48-3.35-28.7-3.97-43.5-.62-14.99-.34-29.42,1.89-44.11.51-3.33,2.46-4.94,5.91-5.4,23.64-3.2,47.23-4.61,71.2-4.6,9.61,0,18.51.75,27.84,2.12,3.49.52,5.49,2.81,6.27,6.39,4.6,21.22,5.7,42.73,5.06,64.56-.2,6.69-.85,12.84-2.33,19.15-1.13,4.83-4.41,7.07-9.44,7.78-27,3.77-53.94,5.18-81.79,4.71Z"/>
        </g>
      </g>
      <g>
        <path class="cls-5" d="M383.54,379.22c-.4,4.08-1.02,8.93-4.74,10.59-9.45,4.22-20.26,5.05-30.45,3.66-5.36-.73-9.89-4.81-9.76-10.24l1.04-43,2.45-62.61,1.04-22.64c.25-5.39,4.91-10.75,11.19-10.82l105.79-1h183.52v-99.67l-36.31-1.09c-5.31-.45-10.16-1.65-14.32-4.89-2.23-1.73-3.51-4.05-4.07-7.07-5.75-30.99-8.23-62.15-6.93-93.74l2.11-21.14c.43-4.3,3.37-7.03,7.75-7.87,22.87-4.37,45.58-6.17,69.07-7.15s46.97-.79,70.59,2.04c5.66.68,9.59,4.43,10.46,10.24,3.66,24.46,4.56,48.72,3.68,73.58-.53,14.84-1.45,28.82-4.08,43.26-.79,4.35-3.13,7.87-7.99,8.31l-47.96,4.31v214.98s-2.48,8.67-7.41,10.26c-7.65,2.47-16.23,3.06-24.01,1.95-8.02-1.25-9.73-7.23-9.58-14.33v-73.99h-126.47l-71.83,3-64.9.54,1.06,33.74,1.07,60.77Z"/>
        <g>
          <path class="cls-1" d="M725.57,121.6c-40.42,4.24-79.96,5.41-120.47,2.88-3.92-22.79-6.26-45.52-6.38-68.75l1.45-33.04c28.74-3.12,56.79-5.37,85.57-5.41l40.39,1.78,2.14,31.55c1.6,23.57-.5,46.73-2.7,70.99Z"/>
          <path class="cls-5" d="M705.01,115.2c-22.84,3.18-65.49,4.62-87.14,1.18-3.45-.55-5.52-2.23-6.14-5.83-3.2-18.62-4.85-37.27-4.48-56.3.15-7.62.45-14.87,2.3-22.2,1.57-2.18,5.65-2.87,8.5-3.21,24.42-2.91,48.57-3.98,73.13-3.58l21.72,1.8c2.53.21,4.4,2.17,4.76,4.96,3.14,24.39,3.47,48.87.46,73.38-.29,2.35-.78,5.73-2.65,6.97-2.96,1.96-6.85,2.33-10.45,2.83Z"/>
        </g>
      </g>
    </g>
  </g>
</svg>